<svg xmlns="http://www.w3.org/2000/svg" width="23.079" height="23.079" viewBox="0 0 23.079 23.079"><rect width="23.079" height="23.079" transform="translate(0 0)" fill="none"/><path d="M8.186,1.455a25.1,25.1,0,0,1,3.274.091,4.218,4.218,0,0,1,1.546.273,3.194,3.194,0,0,1,1.546,1.546,4.218,4.218,0,0,1,.273,1.546c0,.819.091,1.091.091,3.274a25.1,25.1,0,0,1-.091,3.274,4.218,4.218,0,0,1-.273,1.546,3.194,3.194,0,0,1-1.546,1.546,4.218,4.218,0,0,1-1.546.273c-.819,0-1.091.091-3.274.091a25.1,25.1,0,0,1-3.274-.091,4.218,4.218,0,0,1-1.546-.273,3.194,3.194,0,0,1-1.546-1.546,4.218,4.218,0,0,1-.273-1.546c0-.819-.091-1.091-.091-3.274a25.1,25.1,0,0,1,.091-3.274,4.218,4.218,0,0,1,.273-1.546,3.267,3.267,0,0,1,.637-.91,1.538,1.538,0,0,1,.91-.637,4.218,4.218,0,0,1,1.546-.273,25.1,25.1,0,0,1,3.274-.091M8.186,0A26.873,26.873,0,0,0,4.82.091a5.615,5.615,0,0,0-2,.364,3.56,3.56,0,0,0-1.455.91,3.56,3.56,0,0,0-.91,1.455,4.144,4.144,0,0,0-.364,2A26.873,26.873,0,0,0,0,8.186a26.873,26.873,0,0,0,.091,3.365,5.615,5.615,0,0,0,.364,2,3.56,3.56,0,0,0,.91,1.455,3.56,3.56,0,0,0,1.455.91,5.615,5.615,0,0,0,2,.364,26.873,26.873,0,0,0,3.365.091,26.873,26.873,0,0,0,3.365-.091,5.615,5.615,0,0,0,2-.364,3.816,3.816,0,0,0,2.365-2.365,5.615,5.615,0,0,0,.364-2c0-.91.091-1.182.091-3.365A26.873,26.873,0,0,0,16.28,4.82a5.615,5.615,0,0,0-.364-2,3.56,3.56,0,0,0-.91-1.455,3.56,3.56,0,0,0-1.455-.91,5.615,5.615,0,0,0-2-.364A26.873,26.873,0,0,0,8.186,0m0,4A4.116,4.116,0,0,0,4,8.186,4.184,4.184,0,1,0,8.186,4m0,6.912A2.68,2.68,0,0,1,5.457,8.186,2.68,2.68,0,0,1,8.186,5.457a2.68,2.68,0,0,1,2.729,2.729,2.68,2.68,0,0,1-2.729,2.729m4.366-8.095a1,1,0,1,0,1,1,1.009,1.009,0,0,0-1-1" transform="translate(3.122 3.644)" fill="#fff" fill-rule="evenodd"/></svg>