<svg xmlns="http://www.w3.org/2000/svg" width="21" height="21" viewBox="0 0 21 21"><g transform="translate(-29.5 142.369)"><g transform="translate(40 -121.869)"><path d="M0,.5A10.512,10.512,0,0,1-10.5-10,10.512,10.512,0,0,1,0-20.5,10.512,10.512,0,0,1,10.5-10,10.512,10.512,0,0,1,0,.5Zm0-20A9.511,9.511,0,0,0-9.5-10,9.511,9.511,0,0,0,0-.5,9.511,9.511,0,0,0,9.5-10,9.511,9.511,0,0,0,0-19.5Z" fill="#00eb9c"/></g><g transform="translate(40 -127.103)"><path d="M0,0A4.766,4.766,0,0,0,4.766-4.766,4.766,4.766,0,0,0,0-9.532,4.766,4.766,0,0,0-4.766-4.766,4.766,4.766,0,0,0,0,0" fill="#fff"/></g></g></svg>