<svg xmlns="http://www.w3.org/2000/svg" width="21" height="21" viewBox="0 0 21 21"><g transform="translate(-176.897 174.619)"><g transform="translate(187.397 -154.119)"><path d="M0,.5A10.512,10.512,0,0,1-10.5-10,10.512,10.512,0,0,1,0-20.5,10.512,10.512,0,0,1,10.5-10,10.512,10.512,0,0,1,0,.5Zm0-20A9.511,9.511,0,0,0-9.5-10,9.511,9.511,0,0,0,0-.5,9.511,9.511,0,0,0,9.5-10,9.511,9.511,0,0,0,0-19.5Z" fill="aqua"/></g><g transform="translate(187.397 -159.354)"><path d="M0,0A4.766,4.766,0,0,0,4.766-4.766,4.766,4.766,0,0,0,0-9.532,4.766,4.766,0,0,0-4.766-4.766,4.766,4.766,0,0,0,0,0" fill="#fff"/></g></g></svg>