<svg id="grfx-key-building-amenities" xmlns="http://www.w3.org/2000/svg" width="23.002" height="19.704" viewBox="0 0 23.002 19.704">
  <g id="Group_3084" data-name="Group 3084" transform="translate(6.785 11.469)">
    <path id="Path_3841" data-name="Path 3841" d="M0,0V.9H4.146V5.518H2.885v.9H6.306v-.9H5.045V.9H9.192V0Z" fill="#00eb9c"/>
  </g>
  <g id="Group_3085" data-name="Group 3085" transform="translate(16.59 10.9)">
    <path id="Path_3842" data-name="Path 3842" d="M-2.457-2.664a1.513,1.513,0,0,0,1.1-1.45v-4.2h-.9v4.2A.617.617,0,0,1-2.87-3.5H-7.3v.9h.809L-7.669.489h.962l1.173-3.083L-5.547-2.6h2.169l-.014.005L-2.219.489h.962Z" transform="translate(7.669 8.315)" fill="#00eb9c"/>
  </g>
  <g id="Group_3086" data-name="Group 3086">
    <path id="Path_3843" data-name="Path 3843" d="M-5.385-.424A11.531,11.531,0,0,1,4.274,4.517H5.3C3.415,1.086-.825-1.323-5.385-1.323A11.906,11.906,0,0,0-16.57,5.756l-.241.606L-14.4,6.4h8.521v4.421h.9V6.4H.529V5.5H-14.395l-1.073-.016A11.117,11.117,0,0,1-5.385-.424" transform="translate(16.811 1.323)" fill="#00eb9c"/>
  </g>
  <g id="Group_3087" data-name="Group 3087" transform="translate(0.123 10.9)">
    <path id="Path_3844" data-name="Path 3844" d="M-.565-2.664a1.513,1.513,0,0,1-1.1-1.45v-4.2h.9v4.2A.617.617,0,0,0-.152-3.5H4.281v.9H3.472L4.647.489H3.685L2.511-2.594,2.525-2.6H.356l.014.005L-.8.489h-.962Z" transform="translate(1.765 8.315)" fill="#00eb9c"/>
  </g>
</svg>
