<svg xmlns="http://www.w3.org/2000/svg" xmlns:xlink="http://www.w3.org/1999/xlink" width="16.434" height="18.789" viewBox="0 0 16.434 18.789">
  <defs>
    <clipPath id="clip-path"/>
    <clipPath id="clip-path-2">
      <rect id="Rectangle_1800" data-name="Rectangle 1800" width="16.434" height="18.788" fill="#ffa3ee"/>
    </clipPath>
  </defs>
  <g id="grfx-key-lab-suites" transform="translate(75.688 -5718.544)">
    <g id="Group_3484" data-name="Group 3484" transform="translate(-78.471 5747.573)" clip-path="url(#clip-path)">
      <g id="Group_3483" data-name="Group 3483" transform="translate(2.783 -29.028)">
        <path id="Path_4156" data-name="Path 4156" d="M8.256,0,.022,4.158,0,13.847l3.576,1.885.294-.558L.632,13.467l.02-8.92L8.258.705,15.8,4.439v9.022l-3.139,1.55.28.566,3.49-1.723V4.047Z" transform="translate(0)" fill="#ffa3ee"/>
        <path id="Path_4157" data-name="Path 4157" d="M8.485,13.441.747,9.531l-.284.563L8.489,14.15l8.042-4.167-.29-.56Z" transform="translate(-0.268 -5.46)" fill="#ffa3ee"/>
        <rect id="Rectangle_1798" data-name="Rectangle 1798" width="0.631" height="2.986" transform="translate(7.959 8.302)" fill="#ffa3ee"/>
        <g id="Group_3482" data-name="Group 3482" transform="translate(0 0)">
          <g id="Group_3481" data-name="Group 3481" clip-path="url(#clip-path-2)">
            <path id="Path_4158" data-name="Path 4158" d="M15.165,35.618a3.285,3.285,0,1,1,3.285-3.285,3.288,3.288,0,0,1-3.285,3.285m0-5.939a2.654,2.654,0,1,0,2.655,2.655,2.657,2.657,0,0,0-2.655-2.655" transform="translate(-6.883 -16.83)" fill="#ffa3ee"/>
            <rect id="Rectangle_1799" data-name="Rectangle 1799" width="9.029" height="0.631" transform="matrix(0.891, -0.453, 0.453, 0.891, 3.959, 5.948)" fill="#ffa3ee"/>
            <path id="Path_4159" data-name="Path 4159" d="M16.936,36.422l-1.321-1.25.434-.458.875.829,1.554-1.554.446.446Z" transform="translate(-9.047 -19.692)" fill="#ffa3ee"/>
          </g>
        </g>
      </g>
    </g>
  </g>
</svg>
