<svg width="239" height="51" viewBox="0 0 239 51" fill="none" xmlns="http://www.w3.org/2000/svg">
<g clip-path="url(#clip0_8_19)">
<path d="M28 12C24.691 12 22 9.309 22 6C22 2.691 24.691 0 28 0C31.309 0 34 2.691 34 6C34 9.309 31.309 12 28 12ZM28 4C26.897 4 26 4.897 26 6C26 7.103 26.897 8 28 8C29.103 8 30 7.103 30 6C30 4.897 29.103 4 28 4ZM52.037 32.702C52.612 32.351 53 31.723 53 31C53 30.4696 52.7893 29.9609 52.4142 29.5858C52.0391 29.2107 51.5304 29 51 29C43.411 29 37 22.131 37 14H19C19 22.131 12.589 29 5 29C4.46957 29 3.96086 29.2107 3.58579 29.5858C3.21071 29.9609 3 30.4696 3 31C3 31.724 3.388 32.352 3.963 32.702C1.622 33.837 0 36.229 0 39C0 42.859 3.14 46 7 46H21V42H7C5.346 42 4 40.654 4 39C4 37.346 5.346 36 7 36L7.133 35.995C7.269 35.986 20.923 35.218 27.239 46.948L30.685 45.052C28.609 41.195 26 38.472 23 36.549V18H33V36.135C32 36.81 30.792 37.59 29.758 38.495L32.355 41.505C39.57 35.193 48.733 35.981 48.82 35.99L49.01 36C49.8048 36.0013 50.5666 36.318 51.1281 36.8804C51.6896 37.4429 52.005 38.2052 52.005 39C52.005 40.654 50.654 42 49 42H35V46H49C52.86 46 56 42.859 56 39C56 36.229 54.378 33.836 52.037 32.702ZM10.192 32.106C13.696 30.913 17 28.581 19 25.557V34.353C16 32.902 12.494 32.324 10.192 32.106ZM37 25.557C39 28.531 42.204 30.827 45.633 32.037C43.361 32.217 40 32.743 37 34.09V25.557Z" fill="url(#paint0_linear_8_19)"/>
</g>
<path d="M79.57 33.801H61.92C61.6667 33.801 61.4467 33.8943 61.26 34.081C61.0867 34.2543 61 34.4676 61 34.721C61 34.9743 61.0867 35.1943 61.26 35.381C61.4467 35.5543 61.6667 35.641 61.92 35.641H79.57C79.8233 35.641 80.0367 35.5543 80.21 35.381C80.3967 35.1943 80.49 34.9743 80.49 34.721C80.49 34.4676 80.3967 34.2543 80.21 34.081C80.0367 33.8943 79.8233 33.801 79.57 33.801ZM61.92 16.511H79.57C79.8233 16.511 80.0367 16.421 80.21 16.241C80.3967 16.0676 80.49 15.8543 80.49 15.601C80.49 15.3476 80.3967 15.1276 80.21 14.941C80.0367 14.7676 79.8233 14.681 79.57 14.681H61.92C61.6667 14.681 61.4467 14.7676 61.26 14.941C61.0867 15.1276 61 15.3476 61 15.601C61 15.8543 61.0867 16.0676 61.26 16.241C61.4467 16.421 61.6667 16.511 61.92 16.511ZM79.57 24.241H61.92C61.6667 24.241 61.4467 24.331 61.26 24.511C61.0867 24.6843 61 24.8976 61 25.151C61 25.4176 61.0867 25.6376 61.26 25.811C61.4467 25.9843 61.6667 26.071 61.92 26.071H79.57C79.8233 26.071 80.0367 25.9843 80.21 25.811C80.3967 25.6376 80.49 25.4176 80.49 25.151C80.49 24.8976 80.3967 24.6843 80.21 24.511C80.0367 24.331 79.8233 24.241 79.57 24.241ZM101.7 35.641H84.05C83.7967 35.641 83.5767 35.5543 83.39 35.381C83.2167 35.1943 83.13 34.9743 83.13 34.721V15.601C83.13 15.3476 83.2167 15.1276 83.39 14.941C83.5767 14.7676 83.7967 14.681 84.05 14.681C84.3033 14.681 84.5167 14.7676 84.69 14.941C84.8767 15.1276 84.97 15.3476 84.97 15.601V33.801H101.7C101.953 33.801 102.17 33.8943 102.35 34.081C102.537 34.2543 102.63 34.4676 102.63 34.721C102.63 34.9743 102.537 35.1943 102.35 35.381C102.17 35.5543 101.953 35.641 101.7 35.641ZM122.91 24.241H107.1V21.481C107.1 20.1076 107.583 18.9376 108.55 17.971C109.53 16.9976 110.7 16.511 112.06 16.511H117.96C119.32 16.511 120.487 16.9976 121.46 17.971C122.427 18.9376 122.91 20.1076 122.91 21.481V24.241ZM117.96 14.681H112.06C110.187 14.681 108.583 15.3443 107.25 16.671C105.923 17.9976 105.26 19.601 105.26 21.481V34.721C105.26 34.9743 105.347 35.1943 105.52 35.381C105.707 35.5543 105.927 35.641 106.18 35.641C106.433 35.641 106.647 35.5543 106.82 35.381C107.007 35.1943 107.1 34.9743 107.1 34.721V26.071H122.91V34.721C122.91 34.9743 123.003 35.1943 123.19 35.381C123.37 35.5543 123.587 35.641 123.84 35.641C124.087 35.641 124.3 35.5543 124.48 35.381C124.667 35.1943 124.76 34.9743 124.76 34.721V21.481C124.76 19.601 124.093 17.9976 122.76 16.671C121.433 15.3443 119.833 14.681 117.96 14.681ZM141.19 33.801H129.24V26.071H141.19C142.257 26.071 143.163 26.451 143.91 27.211C144.663 27.971 145.04 28.881 145.04 29.941C145.04 31.0076 144.663 31.921 143.91 32.681C143.163 33.4277 142.257 33.801 141.19 33.801ZM129.24 24.241V16.511H141.19C142.257 16.511 143.163 16.8876 143.91 17.641C144.663 18.401 145.04 19.3143 145.04 20.381C145.04 21.441 144.663 22.351 143.91 23.111C143.163 23.8643 142.257 24.241 141.19 24.241H129.24ZM144.29 25.151C146.023 24.031 146.89 22.441 146.89 20.381C146.89 18.8076 146.33 17.461 145.21 16.341C144.103 15.2343 142.763 14.681 141.19 14.681H128.31C128.063 14.681 127.847 14.7676 127.66 14.941C127.48 15.1276 127.39 15.3476 127.39 15.601V34.721C127.39 34.9743 127.48 35.1943 127.66 35.381C127.847 35.5543 128.063 35.641 128.31 35.641H141.19C142.763 35.641 144.103 35.081 145.21 33.961C146.33 32.8543 146.89 31.5143 146.89 29.941C146.89 27.881 146.023 26.2843 144.29 25.151ZM165.15 16.511H153.39C152.83 16.511 152.353 16.711 151.96 17.111C151.567 17.511 151.37 17.9843 151.37 18.531V31.771C151.37 32.331 151.567 32.8076 151.96 33.201C152.353 33.601 152.83 33.801 153.39 33.801H165.15C165.71 33.801 166.187 33.601 166.58 33.201C166.98 32.8076 167.18 32.331 167.18 31.771V18.531C167.18 17.9843 166.98 17.511 166.58 17.111C166.187 16.711 165.71 16.511 165.15 16.511ZM165.15 35.641H153.39C152.33 35.641 151.42 35.261 150.66 34.501C149.9 33.7476 149.52 32.8376 149.52 31.771V18.531C149.52 17.4643 149.9 16.5576 150.66 15.811C151.42 15.0576 152.33 14.681 153.39 14.681H165.15C166.217 14.681 167.127 15.0576 167.88 15.811C168.64 16.5576 169.02 17.4643 169.02 18.531V31.771C169.02 32.8376 168.64 33.7476 167.88 34.501C167.127 35.261 166.217 35.641 165.15 35.641ZM185.45 24.241H173.5V16.511H185.45C186.517 16.511 187.423 16.8876 188.17 17.641C188.93 18.401 189.31 19.3143 189.31 20.381C189.31 21.441 188.93 22.351 188.17 23.111C187.423 23.8643 186.517 24.241 185.45 24.241ZM188.14 25.401C189.053 24.9076 189.777 24.221 190.31 23.341C190.87 22.4276 191.15 21.441 191.15 20.381C191.15 18.8076 190.59 17.461 189.47 16.341C188.363 15.2343 187.023 14.681 185.45 14.681H172.58C172.327 14.681 172.107 14.7676 171.92 14.941C171.747 15.1276 171.66 15.3476 171.66 15.601V34.721C171.66 34.9743 171.747 35.1943 171.92 35.381C172.107 35.5543 172.327 35.641 172.58 35.641C172.833 35.641 173.047 35.5543 173.22 35.381C173.407 35.1943 173.5 34.9743 173.5 34.721V26.071H184.35C185.71 26.071 186.88 26.561 187.86 27.541C188.827 28.5076 189.31 29.6776 189.31 31.051V34.721C189.31 34.9743 189.403 35.1943 189.59 35.381C189.763 35.5543 189.977 35.641 190.23 35.641C190.483 35.641 190.697 35.5543 190.87 35.381C191.057 35.1943 191.15 34.9743 191.15 34.721V31.051C191.15 28.631 190.147 26.7476 188.14 25.401ZM206.48 35.641H200.59C198.71 35.641 197.107 34.9777 195.78 33.651C194.453 32.3243 193.79 30.721 193.79 28.841V15.601C193.79 15.3476 193.877 15.1276 194.05 14.941C194.237 14.7676 194.457 14.681 194.71 14.681C194.963 14.681 195.177 14.7676 195.35 14.941C195.537 15.1276 195.63 15.3476 195.63 15.601V28.841C195.63 30.201 196.113 31.371 197.08 32.351C198.06 33.3176 199.23 33.801 200.59 33.801H206.48C207.84 33.801 209.01 33.3176 209.99 32.351C210.957 31.371 211.44 30.201 211.44 28.841V15.601C211.44 15.3476 211.533 15.1276 211.72 14.941C211.893 14.7676 212.107 14.681 212.36 14.681C212.613 14.681 212.827 14.7676 213 14.941C213.187 15.1276 213.28 15.3476 213.28 15.601V28.841C213.28 30.721 212.617 32.3243 211.29 33.651C209.963 34.9777 208.36 35.641 206.48 35.641ZM237.44 35.641C237.187 35.641 236.967 35.5543 236.78 35.381C236.607 35.1943 236.52 34.9743 236.52 34.721V17.711L227.76 25.831C227.58 25.991 227.37 26.071 227.13 26.071C226.89 26.071 226.683 25.991 226.51 25.831L217.76 17.711V34.721C217.76 34.9743 217.667 35.1943 217.48 35.381C217.307 35.5543 217.093 35.641 216.84 35.641C216.587 35.641 216.367 35.5543 216.18 35.381C216.007 35.1943 215.92 34.9743 215.92 34.721V15.601C215.92 15.1943 216.107 14.9076 216.48 14.741C216.84 14.5876 217.17 14.6476 217.47 14.921L227.13 23.901L236.81 14.921C237.097 14.6476 237.427 14.5876 237.8 14.741C238.173 14.9076 238.36 15.1943 238.36 15.601V34.721C238.36 34.9743 238.267 35.1943 238.08 35.381C237.907 35.5543 237.693 35.641 237.44 35.641Z" fill="url(#paint1_linear_8_19)"/>
<defs>
<linearGradient id="paint0_linear_8_19" x1="28" y1="0" x2="28" y2="46.948" gradientUnits="userSpaceOnUse">
<stop stop-color="#B300B7"/>
<stop offset="0.9999" stop-color="#0057FF" stop-opacity="0.455208"/>
<stop offset="1" stop-color="#1C85FF" stop-opacity="0"/>
</linearGradient>
<linearGradient id="paint1_linear_8_19" x1="149.68" y1="14.6583" x2="149.68" y2="35.641" gradientUnits="userSpaceOnUse">
<stop stop-color="#B300B7"/>
<stop offset="0.9999" stop-color="#0057FF" stop-opacity="0.455208"/>
<stop offset="1" stop-color="#1C85FF" stop-opacity="0"/>
</linearGradient>
<clipPath id="clip0_8_19">
<rect width="56" height="46.948" fill="white"/>
</clipPath>
</defs>
</svg>
