<svg xmlns="http://www.w3.org/2000/svg" xmlns:xlink="http://www.w3.org/1999/xlink" width="52" height="52" viewBox="0 0 52 52">
  <defs>
    <linearGradient id="linear-gradient" y1="-3.742" x2="1" y2="-3.578" gradientUnits="objectBoundingBox">
      <stop offset="0" stop-color="#f7ea55"/>
      <stop offset="0.502" stop-color="#bc39a3"/>
      <stop offset="1" stop-color="#8f41eb"/>
    </linearGradient>
  </defs>
  <g id="grfx-icon-main-menu" transform="translate(-1254 -73)">
    <circle id="Ellipse_326" data-name="Ellipse 326" cx="26" cy="26" r="26" transform="translate(1254 73)" fill="#fff"/>
    <g id="Group_3185" data-name="Group 3185" transform="translate(0.5 -2.5)">
      <path id="Line_1326" data-name="Line 1326" d="M18,1H0A1,1,0,0,1-1,0,1,1,0,0,1,0-1H18a1,1,0,0,1,1,1A1,1,0,0,1,18,1Z" transform="translate(1270.5 94.5)" fill="url(#linear-gradient)"/>
      <path id="Line_1327" data-name="Line 1327" d="M18,1H0A1,1,0,0,1-1,0,1,1,0,0,1,0-1H18a1,1,0,0,1,1,1A1,1,0,0,1,18,1Z" transform="translate(1270.5 101.511)" fill="url(#linear-gradient)"/>
      <path id="Line_1328" data-name="Line 1328" d="M18,1H0A1,1,0,0,1-1,0,1,1,0,0,1,0-1H18a1,1,0,0,1,1,1A1,1,0,0,1,18,1Z" transform="translate(1270.5 108.522)" fill="url(#linear-gradient)"/>
    </g>
  </g>
</svg>
