<svg xmlns="http://www.w3.org/2000/svg" xmlns:xlink="http://www.w3.org/1999/xlink" width="799.858" height="613.553" viewBox="0 0 799.858 613.553">
  <defs>
    <clipPath id="clip-path">
      <path id="Path_3756" data-name="Path 3756" d="M676.689-613.553a122.444,122.444,0,0,0-61.2,16.227h0a122.456,122.456,0,0,0-61.2-16.227h0a122.36,122.36,0,0,0-87.094,36.075h0a123.981,123.981,0,0,0-18.422,23.47h0a124.016,124.016,0,0,0-18.421-23.47h0a122.363,122.363,0,0,0-87.094-36.075h0a122.453,122.453,0,0,0-61.2,16.227h0a122.445,122.445,0,0,0-61.2-16.227h0a122.361,122.361,0,0,0-87.093,36.075h0a122.359,122.359,0,0,0-36.075,87.093h0v366.451H61.967A62.037,62.037,0,0,0,0-61.967H0A62.037,62.037,0,0,0,61.967,0h158.88a122.446,122.446,0,0,0,61.2-16.228h0A122.454,122.454,0,0,0,343.253,0h0a123.948,123.948,0,0,0,30.681-3.836h0A61.682,61.682,0,0,0,395.4,0H554.284a122.46,122.46,0,0,0,61.2-16.227h0A122.46,122.46,0,0,0,676.688,0h0a122.359,122.359,0,0,0,87.094-36.076h0a122.359,122.359,0,0,0,36.076-87.094h0V-490.385a122.36,122.36,0,0,0-36.076-87.093h0A122.357,122.357,0,0,0,676.689-613.553ZM617.008-17.115a123.932,123.932,0,0,0,24.37-18.961h0a122.362,122.362,0,0,0,36.075-87.094h0V-490.385a122.363,122.363,0,0,0-36.075-87.093h0a123.926,123.926,0,0,0-24.37-18.96h0a120.954,120.954,0,0,1,59.68-15.587h0A120.846,120.846,0,0,1,762.7-576.4h0a120.841,120.841,0,0,1,35.628,86.012h0V-123.17A120.846,120.846,0,0,1,762.7-37.156h0A120.845,120.845,0,0,1,676.689-1.528h0a120.965,120.965,0,0,1-59.68-15.587M466.422-490.385a122.426,122.426,0,0,0-16.768-62.129h0A122.33,122.33,0,0,1,468.271-576.4h0a120.842,120.842,0,0,1,86.013-35.628h0a120.954,120.954,0,0,1,59.68,15.587h0a123.949,123.949,0,0,0-24.369,18.96h0a122.363,122.363,0,0,0-36.075,87.093h0v366.451h-87.1ZM344.017-123.17V-490.385a122.364,122.364,0,0,0-36.076-87.093h0a123.919,123.919,0,0,0-24.369-18.96h0a120.955,120.955,0,0,1,59.681-15.587h0A120.843,120.843,0,0,1,429.266-576.4h0a122.369,122.369,0,0,1,18.617,23.883h0a122.427,122.427,0,0,0-16.769,62.129h0v366.451H395.4a62.06,62.06,0,0,0-56.96,37.575h0a123.52,123.52,0,0,0,5.575-36.811M99.207-490.385A120.84,120.84,0,0,1,134.834-576.4h0a120.847,120.847,0,0,1,86.013-35.628h0a120.952,120.952,0,0,1,59.681,15.587h0a123.949,123.949,0,0,0-24.369,18.96h0a122.364,122.364,0,0,0-36.076,87.093h0v366.451H99.207Zm455.841,0A120.844,120.844,0,0,1,590.675-576.4h0a122.32,122.32,0,0,1,24.811-19.159h0A122.322,122.322,0,0,1,640.3-576.4h0a120.841,120.841,0,0,1,35.628,86.012h0v259.8a105.954,105.954,0,0,1-31.239,75.414h0a105.95,105.95,0,0,1-75.414,31.238H555.048Zm-333.437,0A120.842,120.842,0,0,1,257.24-576.4h0a122.288,122.288,0,0,1,24.81-19.159h0A122.259,122.259,0,0,1,306.86-576.4h0a120.838,120.838,0,0,1,35.629,86.012h0v259.8a105.957,105.957,0,0,1-31.238,75.414h0a105.953,105.953,0,0,1-75.416,31.238H221.611Zm211.032,0A120.923,120.923,0,0,1,448.768-551h0a120.923,120.923,0,0,1,16.125,60.613h0v366.451h-32.25ZM590.675-37.156A120.824,120.824,0,0,1,555.058-122.4h14.214a107.472,107.472,0,0,0,76.5-31.686h0a107.39,107.39,0,0,0,30.158-58.241h0v89.162A120.846,120.846,0,0,1,640.3-37.156h0A122.356,122.356,0,0,1,615.486-18h0a122.355,122.355,0,0,1-24.811-19.159m-333.435,0A120.826,120.826,0,0,1,221.621-122.4h14.214a107.472,107.472,0,0,0,76.5-31.686h0a107.384,107.384,0,0,0,30.158-58.241h0v89.162A120.843,120.843,0,0,1,306.86-37.156h0A122.293,122.293,0,0,1,282.05-18h0a122.322,122.322,0,0,1-24.81-19.159m211.031,0a122.361,122.361,0,0,1-18.617-23.883h0A122.388,122.388,0,0,0,466.412-122.4h87.117a122.34,122.34,0,0,0,36.066,86.329h0a123.926,123.926,0,0,0,24.369,18.961h0a120.965,120.965,0,0,1-59.68,15.587h0a120.842,120.842,0,0,1-86.013-35.628M432.652-122.4h32.232a120.878,120.878,0,0,1-16.116,59.849h0A120.9,120.9,0,0,1,432.652-122.4M334.964-61.967A60.506,60.506,0,0,1,395.4-122.4h35.721a122.41,122.41,0,0,0,16.76,61.366h0a122.4,122.4,0,0,1-18.617,23.883h0A120.887,120.887,0,0,1,374.018-5.44h0a60.537,60.537,0,0,1-39.054-56.527M134.834-37.156A120.829,120.829,0,0,1,99.216-122.4H220.093a122.339,122.339,0,0,0,36.066,86.329h0a123.954,123.954,0,0,0,24.369,18.961h0A120.963,120.963,0,0,1,220.847-1.528h0a120.847,120.847,0,0,1-86.013-35.628M1.528-61.967A60.507,60.507,0,0,1,61.967-122.4H97.688a122.344,122.344,0,0,0,36.066,86.329h0A122.252,122.252,0,0,0,201.385-1.528H61.967A60.508,60.508,0,0,1,1.528-61.967M283.572-17.115a123.925,123.925,0,0,0,24.369-18.961h0a122.837,122.837,0,0,0,27.694-42.265h0a61.836,61.836,0,0,0-2.2,16.374h0A62.061,62.061,0,0,0,371.472-4.809h0a122.538,122.538,0,0,1-28.219,3.281h0a120.966,120.966,0,0,1-59.681-15.587M376.567-4.537a122.479,122.479,0,0,0,53.78-31.539h0a124.015,124.015,0,0,0,18.421-23.47h0a123.98,123.98,0,0,0,18.422,23.47h0A122.246,122.246,0,0,0,534.82-1.528H395.4a60.193,60.193,0,0,1-18.835-3.009" fill="none"/>
    </clipPath>
    <linearGradient id="linear-gradient" x2="1" gradientUnits="objectBoundingBox">
      <stop offset="0" stop-color="#e9aa00"/>
      <stop offset="0.1" stop-color="#eda427"/>
      <stop offset="0.2" stop-color="#f19b3e"/>
      <stop offset="0.3" stop-color="#f58e43"/>
      <stop offset="0.4" stop-color="#f97e37"/>
      <stop offset="0.5" stop-color="#fd6919"/>
      <stop offset="0.6" stop-color="#e96835"/>
      <stop offset="0.7" stop-color="#cc6367"/>
      <stop offset="0.8" stop-color="#b04f9a"/>
      <stop offset="0.9" stop-color="#932dcd"/>
      <stop offset="1" stop-color="#70f"/>
    </linearGradient>
  </defs>
  <g id="lines-top" transform="translate(0 613.553)">
    <g id="Group_2995" data-name="Group 2995" clip-path="url(#clip-path)">
      <g id="Group_2994" data-name="Group 2994" transform="translate(0 -613.554)">
        <path id="Path_3755" data-name="Path 3755" d="M0,0H799.858V613.554H0Z" fill="url(#linear-gradient)"/>
      </g>
    </g>
  </g>
</svg>
