<svg xmlns="http://www.w3.org/2000/svg" xmlns:xlink="http://www.w3.org/1999/xlink" width="622.286" height="477.341" viewBox="0 0 622.286 477.341">
  <defs>
    <linearGradient id="linear-gradient" x2="1" gradientUnits="objectBoundingBox">
      <stop offset="0" stop-color="#5239bc"/>
      <stop offset="0.414" stop-color="#bc39a3"/>
      <stop offset="0.734" stop-color="#39bc89"/>
      <stop offset="1" stop-color="#39bc89"/>
    </linearGradient>
    <clipPath id="clip-path">
      <path id="Path_3760" data-name="Path 3760" d="M478.845-790.209a95.269,95.269,0,0,0-47.616-12.625h0a95.2,95.2,0,0,0-67.758,28.067h0a96.482,96.482,0,0,0-14.332,18.259h0a96.454,96.454,0,0,0-14.332-18.259h0a95.2,95.2,0,0,0-67.758-28.067h0a95.27,95.27,0,0,0-47.616,12.625h0a95.268,95.268,0,0,0-47.615-12.625h0a95.2,95.2,0,0,0-67.758,28.067h0a95.2,95.2,0,0,0-28.066,67.758h0v285.1H48.21A48.265,48.265,0,0,0,0-373.7H0a48.264,48.264,0,0,0,48.21,48.21H171.818a95.262,95.262,0,0,0,47.615-12.625h0a95.264,95.264,0,0,0,47.616,12.625h0a96.431,96.431,0,0,0,23.87-2.984h0a47.985,47.985,0,0,0,16.7,2.984H431.23a95.266,95.266,0,0,0,47.615-12.625h0a95.269,95.269,0,0,0,47.616,12.625h0a95.2,95.2,0,0,0,67.759-28.066h0a95.2,95.2,0,0,0,28.066-67.759h0V-707.008a95.2,95.2,0,0,0-28.066-67.758h0a95.2,95.2,0,0,0-67.759-28.067h0a95.267,95.267,0,0,0-47.615,12.625m1.184,451.4a96.382,96.382,0,0,0,18.958-14.75h0a95.2,95.2,0,0,0,28.067-67.759h0V-707.008a95.2,95.2,0,0,0-28.067-67.758h0a96.408,96.408,0,0,0-18.958-14.751h0a94.1,94.1,0,0,1,46.431-12.126h0a94.016,94.016,0,0,1,66.918,27.718h0A94.016,94.016,0,0,1,621.1-707.008h0v285.691A94.021,94.021,0,0,1,593.379-354.4h0a94.017,94.017,0,0,1-66.918,27.718h0a94.1,94.1,0,0,1-46.431-12.127m-117.156-368.2a95.246,95.246,0,0,0-13.046-48.337h0a95.248,95.248,0,0,1,14.484-18.58h0a94.013,94.013,0,0,1,66.918-27.718h0a94.1,94.1,0,0,1,46.431,12.126h0A96.474,96.474,0,0,0,458.7-774.766h0a95.2,95.2,0,0,0-28.067,67.758h0v285.1H362.874Zm-95.23,285.691V-707.008a95.2,95.2,0,0,0-28.067-67.758h0a96.429,96.429,0,0,0-18.959-14.751h0a94.1,94.1,0,0,1,46.431-12.126h0a94.014,94.014,0,0,1,66.918,27.718h0a95.22,95.22,0,0,1,14.484,18.58h0a95.24,95.24,0,0,0-13.046,48.337h0v285.1H307.621a48.28,48.28,0,0,0-44.314,29.233h0a96.135,96.135,0,0,0,4.337-28.638M77.182-707.008A94.012,94.012,0,0,1,104.9-773.926h0a94.01,94.01,0,0,1,66.917-27.718h0a94.1,94.1,0,0,1,46.431,12.126h0a96.447,96.447,0,0,0-18.959,14.751h0a95.2,95.2,0,0,0-28.066,67.758h0v285.1H77.182Zm354.642,0a94.017,94.017,0,0,1,27.718-66.917h0a95.164,95.164,0,0,1,19.3-14.905h0a95.138,95.138,0,0,1,19.3,14.905h0a94.014,94.014,0,0,1,27.718,66.917h0v202.122a82.434,82.434,0,0,1-24.3,58.672h0a82.433,82.433,0,0,1-58.673,24.3H431.824Zm-259.411,0a94.014,94.014,0,0,1,27.718-66.917h0a95.122,95.122,0,0,1,19.3-14.905h0a95.109,95.109,0,0,1,19.3,14.905h0a94.014,94.014,0,0,1,27.718,66.917h0v202.122a82.432,82.432,0,0,1-24.3,58.672h0a82.434,82.434,0,0,1-58.673,24.3H172.413Zm164.181,0a94.08,94.08,0,0,1,12.545-47.157h0a94.074,94.074,0,0,1,12.546,47.157h0v285.1H336.594ZM459.543-354.4a94,94,0,0,1-27.711-66.324H442.89A83.615,83.615,0,0,0,502.4-445.374h0a83.546,83.546,0,0,0,23.462-45.311h0v69.367A94.019,94.019,0,0,1,498.148-354.4h0a95.2,95.2,0,0,1-19.3,14.905h0a95.223,95.223,0,0,1-19.3-14.905m-259.411,0a94,94,0,0,1-27.711-66.324h11.058a83.615,83.615,0,0,0,59.514-24.651h0a83.552,83.552,0,0,0,23.462-45.311h0v69.367A94.018,94.018,0,0,1,238.736-354.4h0a95.194,95.194,0,0,1-19.3,14.905h0a95.206,95.206,0,0,1-19.3-14.905m164.181,0a95.28,95.28,0,0,1-14.484-18.581h0a95.213,95.213,0,0,0,13.039-47.743h67.776A95.182,95.182,0,0,0,458.7-353.558h0a96.4,96.4,0,0,0,18.959,14.75h0a94.1,94.1,0,0,1-46.431,12.127h0A94.015,94.015,0,0,1,364.312-354.4M336.6-420.723h25.077a94.052,94.052,0,0,1-12.538,46.563h0A94.054,94.054,0,0,1,336.6-420.723m-76,47.021a47.074,47.074,0,0,1,47.02-47.021h27.791a95.214,95.214,0,0,0,13.039,47.743h0A95.252,95.252,0,0,1,333.967-354.4h0a94.065,94.065,0,0,1-42.982,24.675h0A47.1,47.1,0,0,1,260.6-373.7M104.9-354.4A94,94,0,0,1,77.19-420.723h94.041a95.185,95.185,0,0,0,28.059,67.164h0a96.421,96.421,0,0,0,18.959,14.75h0a94.1,94.1,0,0,1-46.431,12.127h0A94.012,94.012,0,0,1,104.9-354.4M1.189-373.7a47.074,47.074,0,0,1,47.02-47.021H76a95.188,95.188,0,0,0,28.06,67.164h0a95.112,95.112,0,0,0,52.617,26.877H48.21A47.073,47.073,0,0,1,1.189-373.7m219.429,34.894a96.4,96.4,0,0,0,18.959-14.75h0a95.583,95.583,0,0,0,21.545-32.883h0a48.091,48.091,0,0,0-1.711,12.739h0A48.283,48.283,0,0,0,289-329.233h0a95.322,95.322,0,0,1-21.955,2.552h0a94.1,94.1,0,0,1-46.431-12.127m72.349,9.787a95.294,95.294,0,0,0,41.84-24.537h0a96.479,96.479,0,0,0,14.332-18.26h0a96.506,96.506,0,0,0,14.332,18.26h0a95.114,95.114,0,0,0,52.617,26.877H307.621a46.845,46.845,0,0,1-14.654-2.34" transform="translate(0 802.833)" fill="url(#linear-gradient)"/>
    </clipPath>
  </defs>
  <g id="lines" transform="translate(622.286 -325.492) rotate(180)">
    <g id="Group_3001" data-name="Group 3001" transform="translate(0 -802.833)" clip-path="url(#clip-path)">
      <g id="Group_3000" data-name="Group 3000" transform="translate(0 -0.001)">
        <path id="Path_3759" data-name="Path 3759" d="M0,0H622.284V477.341H0Z" transform="translate(0 0.001)" fill="url(#linear-gradient)"/>
      </g>
    </g>
    <g id="Group_3003" data-name="Group 3003" transform="translate(0 -802.833)" clip-path="url(#clip-path)">
      <g id="Group_3002" data-name="Group 3002" transform="translate(0 -0.001)">
        <path id="Path_3761" data-name="Path 3761" d="M0,0H622.284V477.341H0Z" transform="translate(0 0.001)" fill="url(#linear-gradient)"/>
      </g>
    </g>
  </g>
</svg>
