<svg xmlns="http://www.w3.org/2000/svg" xmlns:xlink="http://www.w3.org/1999/xlink" width="140.827" height="49.441" viewBox="0 0 140.827 49.441"><defs><clipPath id="a"><path d="M0-94.964H140.827v-49.441H0Z" transform="translate(0 144.405)" fill="#fff"/></clipPath></defs><g transform="translate(265 -400.513)"><g transform="translate(-265 400.513)" clip-path="url(#a)"><g transform="translate(0 0)"><path d="M-19.247-.752a11.7,11.7,0,0,1,2.683,1,.341.341,0,0,1,.2.348V4.454a.256.256,0,0,1-.29.29H-19.2a.256.256,0,0,1-.29-.29V2.684a.247.247,0,0,0-.174-.261,7.889,7.889,0,0,0-2.9-.522,3.667,3.667,0,0,0-2.407.682,2.311,2.311,0,0,0-.812,1.871,2.265,2.265,0,0,0,.8,1.813,5.456,5.456,0,0,0,2.77.943l1.044.145A7.707,7.707,0,0,1-16.8,9.21a5.254,5.254,0,0,1,1.508,3.973,5.529,5.529,0,0,1-1.885,4.394,8.076,8.076,0,0,1-5.453,1.639,13.224,13.224,0,0,1-6.438-1.566.376.376,0,0,1-.2-.348V13.358a.257.257,0,0,1,.29-.29h2.668a.257.257,0,0,1,.29.29V15.3a.205.205,0,0,0,.145.2,9.668,9.668,0,0,0,3.422.667,4.445,4.445,0,0,0,2.741-.74,2.486,2.486,0,0,0,.971-2.1,2.273,2.273,0,0,0-.827-1.827,5.5,5.5,0,0,0-2.77-.957l-1.044-.145a7.9,7.9,0,0,1-4.394-1.8,5.126,5.126,0,0,1-1.493-3.944A5.261,5.261,0,0,1-27.44.379a7.7,7.7,0,0,1,5.076-1.523,12.706,12.706,0,0,1,3.118.392" transform="translate(29.267 1.144)" fill="#fff"/></g><g transform="translate(16.07 5.743)"><path d="M-17.38-.557a7.771,7.771,0,0,1,2.146.812A.393.393,0,0,1-15,.632v3.19a.256.256,0,0,1-.29.29h-2.465a.256.256,0,0,1-.29-.29V2.546a.206.206,0,0,0-.145-.2,2.858,2.858,0,0,0-.74-.2,6.065,6.065,0,0,0-1.03-.087A2.681,2.681,0,0,0-22.833,3.88a8.654,8.654,0,0,0-.29,2.582,8.784,8.784,0,0,0,.29,2.61,2.681,2.681,0,0,0,2.871,1.8,4.291,4.291,0,0,0,1.769-.261.245.245,0,0,0,.145-.2V9.1a.257.257,0,0,1,.29-.29h2.465A.257.257,0,0,1-15,9.1V12.32a.392.392,0,0,1-.232.377,10.278,10.278,0,0,1-4.815,1.073,7.042,7.042,0,0,1-3.814-.957A5.055,5.055,0,0,1-25.994,10a11.555,11.555,0,0,1-.435-3.538,11.2,11.2,0,0,1,.435-3.452A5.218,5.218,0,0,1-23.833.153a6.838,6.838,0,0,1,3.785-1,11.775,11.775,0,0,1,2.668.29" transform="translate(26.429 0.847)" fill="#fff"/></g><g transform="translate(29.617 0.319)"><path d="M-9.526-11.587V-.914a.154.154,0,0,0,.174.174H-8.1a.257.257,0,0,1,.29.29V1.812a.256.256,0,0,1-.29.29H-14.2a.256.256,0,0,1-.29-.29V-.45a.256.256,0,0,1,.29-.29h1.247a.154.154,0,0,0,.174-.174V-8.861a.154.154,0,0,0-.174-.174H-14.2a.256.256,0,0,1-.29-.29v-2.262a.256.256,0,0,1,.29-.29h4.379a.257.257,0,0,1,.29.29m0-5.743v2.523a.256.256,0,0,1-.29.29h-2.668a.256.256,0,0,1-.29-.29V-17.33a.256.256,0,0,1,.29-.29h2.668a.257.257,0,0,1,.29.29" transform="translate(14.485 17.62)" fill="#fff"/></g><g transform="translate(37.784 5.743)"><path d="M-18.885-1.977A5.289,5.289,0,0,1-16.8.85a8.272,8.272,0,0,1,.363,1.682,24.019,24.019,0,0,1,.1,2.523q0,.29-.319.29h-8.614a.154.154,0,0,0-.174.174,3.1,3.1,0,0,0,.2,1.073,3,3,0,0,0,1.16,1.566A3.425,3.425,0,0,0-22.1,8.71a4.22,4.22,0,0,0,3.277-1.334q.232-.232.435-.058l1.711,1.508a.265.265,0,0,1,.029.406,6.388,6.388,0,0,1-2.407,1.74,8.351,8.351,0,0,1-3.335.638,6.5,6.5,0,0,1-3.727-1.03,5.258,5.258,0,0,1-2.1-2.857A11.159,11.159,0,0,1-28.717,4.3,11.379,11.379,0,0,1-28.253.85a5.19,5.19,0,0,1,2.1-2.842,6.358,6.358,0,0,1,3.611-1.015,6.328,6.328,0,0,1,3.655,1.03M-24.25.227a2.517,2.517,0,0,0-1.015,1.32,3.75,3.75,0,0,0-.174,1.189.154.154,0,0,0,.174.174h5.481a.154.154,0,0,0,.174-.174,3.751,3.751,0,0,0-.174-1.189A2.522,2.522,0,0,0-20.8.227,3.035,3.035,0,0,0-22.51-.252a3.085,3.085,0,0,0-1.74.478" transform="translate(28.717 3.007)" fill="#fff"/></g><g transform="translate(51.926 5.743)"><path d="M-23.257-2.785A5.345,5.345,0,0,1-21.938.956V7.047a.154.154,0,0,0,.174.174h1.189a.257.257,0,0,1,.29.29V9.773a.256.256,0,0,1-.29.29h-6.033a.256.256,0,0,1-.29-.29V7.511a.256.256,0,0,1,.29-.29h1.247a.154.154,0,0,0,.174-.174V1.71a3.429,3.429,0,0,0-.667-2.219A2.35,2.35,0,0,0-27.8-1.335a2.358,2.358,0,0,0-1.929.827,3.378,3.378,0,0,0-.682,2.219V7.047a.154.154,0,0,0,.174.174h1.247a.257.257,0,0,1,.29.29V9.773a.256.256,0,0,1-.29.29h-6.091a.256.256,0,0,1-.29-.29V7.511a.256.256,0,0,1,.29-.29h1.247a.154.154,0,0,0,.174-.174V-.9a.154.154,0,0,0-.174-.174h-1.247a.256.256,0,0,1-.29-.29V-3.626a.256.256,0,0,1,.29-.29H-30.7a.257.257,0,0,1,.29.29v1.015h.029a3.546,3.546,0,0,1,1.406-1.174,4.912,4.912,0,0,1,2.19-.45,4.534,4.534,0,0,1,3.524,1.45" transform="translate(35.366 4.235)" fill="#fff"/></g><g transform="translate(68.539 5.743)"><path d="M-17.381-.557a7.771,7.771,0,0,1,2.146.812A.393.393,0,0,1-15,.632v3.19a.256.256,0,0,1-.29.29h-2.465a.256.256,0,0,1-.29-.29V2.546a.206.206,0,0,0-.145-.2,2.862,2.862,0,0,0-.74-.2,6.065,6.065,0,0,0-1.03-.087A2.681,2.681,0,0,0-22.834,3.88a8.668,8.668,0,0,0-.29,2.582,8.8,8.8,0,0,0,.29,2.61,2.682,2.682,0,0,0,2.872,1.8,4.291,4.291,0,0,0,1.769-.261.245.245,0,0,0,.145-.2V9.1a.257.257,0,0,1,.29-.29h2.465A.257.257,0,0,1-15,9.1V12.32a.392.392,0,0,1-.232.377,10.278,10.278,0,0,1-4.815,1.073,7.042,7.042,0,0,1-3.814-.957A5.055,5.055,0,0,1-25.995,10a11.554,11.554,0,0,1-.435-3.538,11.2,11.2,0,0,1,.435-3.452A5.218,5.218,0,0,1-23.834.153a6.838,6.838,0,0,1,3.785-1,11.775,11.775,0,0,1,2.668.29" transform="translate(26.43 0.847)" fill="#fff"/></g><g transform="translate(82.089 5.743)"><path d="M-18.885-1.977A5.289,5.289,0,0,1-16.8.85a8.272,8.272,0,0,1,.363,1.682,24.019,24.019,0,0,1,.1,2.523q0,.29-.319.29h-8.614a.154.154,0,0,0-.174.174,3.1,3.1,0,0,0,.2,1.073,3,3,0,0,0,1.16,1.566A3.425,3.425,0,0,0-22.1,8.71a4.22,4.22,0,0,0,3.277-1.334q.232-.232.435-.058l1.711,1.508a.265.265,0,0,1,.029.406,6.388,6.388,0,0,1-2.407,1.74,8.352,8.352,0,0,1-3.335.638,6.5,6.5,0,0,1-3.727-1.03,5.258,5.258,0,0,1-2.1-2.857A11.159,11.159,0,0,1-28.717,4.3,11.379,11.379,0,0,1-28.253.85a5.19,5.19,0,0,1,2.1-2.842,6.358,6.358,0,0,1,3.611-1.015,6.328,6.328,0,0,1,3.655,1.03M-24.25.227a2.517,2.517,0,0,0-1.015,1.32,3.75,3.75,0,0,0-.174,1.189.154.154,0,0,0,.174.174h5.481a.154.154,0,0,0,.174-.174,3.751,3.751,0,0,0-.174-1.189A2.522,2.522,0,0,0-20.8.227,3.035,3.035,0,0,0-22.51-.252a3.085,3.085,0,0,0-1.74.478" transform="translate(28.717 3.007)" fill="#fff"/></g><g transform="translate(53.132 24.18)"><path d="M-19.247-.752a11.684,11.684,0,0,1,2.683,1,.341.341,0,0,1,.2.348V4.454a.256.256,0,0,1-.29.29H-19.2a.256.256,0,0,1-.29-.29V2.684a.247.247,0,0,0-.174-.261,7.889,7.889,0,0,0-2.9-.522,3.667,3.667,0,0,0-2.407.681,2.312,2.312,0,0,0-.812,1.871,2.265,2.265,0,0,0,.8,1.813,5.463,5.463,0,0,0,2.77.943l1.044.145A7.71,7.71,0,0,1-16.8,9.21a5.254,5.254,0,0,1,1.508,3.973,5.529,5.529,0,0,1-1.885,4.394,8.076,8.076,0,0,1-5.453,1.639,13.221,13.221,0,0,1-6.438-1.566.375.375,0,0,1-.2-.348V13.358a.257.257,0,0,1,.29-.29h2.668a.257.257,0,0,1,.29.29V15.3a.205.205,0,0,0,.145.2,9.668,9.668,0,0,0,3.422.667,4.446,4.446,0,0,0,2.741-.74,2.486,2.486,0,0,0,.971-2.1,2.272,2.272,0,0,0-.827-1.827,5.5,5.5,0,0,0-2.77-.957l-1.044-.145a7.9,7.9,0,0,1-4.394-1.8,5.126,5.126,0,0,1-1.493-3.944A5.262,5.262,0,0,1-27.44.379a7.7,7.7,0,0,1,5.076-1.523,12.706,12.706,0,0,1,3.118.392" transform="translate(29.267 1.144)" fill="#fff"/></g><g transform="translate(69.216 29.922)"><path d="M-17.381-3.176h.029V-4.22a.256.256,0,0,1,.29-.29h4.379a.257.257,0,0,1,.29.29v2.262a.256.256,0,0,1-.29.29h-1.247a.154.154,0,0,0-.174.174V11.674a.154.154,0,0,0,.174.174h1.247a.256.256,0,0,1,.29.29V14.4a.257.257,0,0,1-.29.29h-6.091a.256.256,0,0,1-.29-.29V12.138a.256.256,0,0,1,.29-.29h1.247a.154.154,0,0,0,.174-.174V8.136h-.029a4.217,4.217,0,0,1-3.712,1.653,5.256,5.256,0,0,1-3.045-.856,4.744,4.744,0,0,1-1.8-2.509,10.42,10.42,0,0,1-.377-1.7A17.41,17.41,0,0,1-26.43,2.48,17.421,17.421,0,0,1-26.314.232a10.44,10.44,0,0,1,.377-1.7,4.748,4.748,0,0,1,1.8-2.509,5.256,5.256,0,0,1,3.045-.856,4.218,4.218,0,0,1,3.712,1.653m-4.51,1.711A2.577,2.577,0,0,0-22.834-.13a8.973,8.973,0,0,0-.29,2.61,8.969,8.969,0,0,0,.29,2.61,2.575,2.575,0,0,0,.943,1.334,2.755,2.755,0,0,0,1.639.464A2.825,2.825,0,0,0-18.6,6.424a2.548,2.548,0,0,0,.957-1.334,8.993,8.993,0,0,0,.29-2.61,9,9,0,0,0-.29-2.61A2.55,2.55,0,0,0-18.6-1.464a2.827,2.827,0,0,0-1.653-.464,2.758,2.758,0,0,0-1.639.464" transform="translate(26.43 4.829)" fill="#fff"/></g><g transform="translate(84.855 30.241)"><path d="M-25.681-.557V10.116a.154.154,0,0,0,.174.174h1.247a.257.257,0,0,1,.29.29v2.262a.256.256,0,0,1-.29.29h-4.379a.256.256,0,0,1-.29-.29V11.827h-.029a4.31,4.31,0,0,1-3.6,1.624,4.44,4.44,0,0,1-3.5-1.45A5.416,5.416,0,0,1-37.34,8.26V2.169A.154.154,0,0,0-37.514,2h-1.247a.256.256,0,0,1-.29-.29V-.557a.256.256,0,0,1,.29-.29h4.379a.257.257,0,0,1,.29.29V7.506a3.483,3.483,0,0,0,.653,2.219,2.308,2.308,0,0,0,1.929.827,2.326,2.326,0,0,0,1.9-.827,3.335,3.335,0,0,0,.681-2.19V2.169A.154.154,0,0,0-29.1,2h-1.276a.256.256,0,0,1-.29-.29V-.557a.256.256,0,0,1,.29-.29h4.408a.257.257,0,0,1,.29.29" transform="translate(39.051 0.847)" fill="#fff"/></g><g transform="translate(101.754 29.922)"><path d="M-19.748-2.173a4.689,4.689,0,0,1,1.32,3.741v6.41a.154.154,0,0,0,.174.174h1.247a.257.257,0,0,1,.29.29V10.7a.256.256,0,0,1-.29.29h-4.147a.256.256,0,0,1-.29-.29V9.689h-.029a3.491,3.491,0,0,1-1.508,1.189,5.873,5.873,0,0,1-2.378.435,5.046,5.046,0,0,1-3.35-1.1,3.92,3.92,0,0,1-1.32-3.19,3.947,3.947,0,0,1,1.465-3.35,6.641,6.641,0,0,1,4.1-1.116h2.784a.154.154,0,0,0,.174-.174V1.83a2.432,2.432,0,0,0-.623-1.856,3.324,3.324,0,0,0-2.248-.58,6.682,6.682,0,0,0-1.508.174.179.179,0,0,0-.145.2V1.018a.256.256,0,0,1-.29.29h-2.523a.256.256,0,0,1-.29-.29V-1.941a.392.392,0,0,1,.232-.377A10.684,10.684,0,0,1-24.229-3.3q3.161,0,4.481,1.131M-26.2,5.455a1.6,1.6,0,0,0-.725,1.45,1.537,1.537,0,0,0,.609,1.32,2.948,2.948,0,0,0,1.769.45q3.045,0,3.045-2.378V5.165a.154.154,0,0,0-.174-.174h-2.262a4.3,4.3,0,0,0-2.262.464" transform="translate(30.03 3.304)" fill="#fff"/></g><g transform="translate(116.769 30.038)"><path d="M-18.941-.279q.29.059.29.29V2.535a.305.305,0,0,1-.087.247A.315.315,0,0,1-19,2.824a11.374,11.374,0,0,0-1.711-.232,3,3,0,0,0-2.349.87,3.993,3.993,0,0,0-.783,2.726v4.554a.154.154,0,0,0,.174.174h1.363a.257.257,0,0,1,.29.29v2.262a.257.257,0,0,1-.29.29h-6.207a.256.256,0,0,1-.29-.29V11.206a.256.256,0,0,1,.29-.29h1.247a.154.154,0,0,0,.174-.174V2.8a.154.154,0,0,0-.174-.174h-1.247a.256.256,0,0,1-.29-.29V.069a.256.256,0,0,1,.29-.29h4.379a.257.257,0,0,1,.29.29v1.45h.029A4.035,4.035,0,0,1-22.436.127,3.955,3.955,0,0,1-20.3-.424a6.149,6.149,0,0,1,1.363.145" transform="translate(28.802 0.424)" fill="#fff"/></g><g transform="translate(128.442 29.922)"><path d="M-18.885-1.977A5.288,5.288,0,0,1-16.8.85a8.272,8.272,0,0,1,.363,1.682,24.015,24.015,0,0,1,.1,2.523q0,.29-.319.29h-8.614a.154.154,0,0,0-.174.174,3.1,3.1,0,0,0,.2,1.073,3,3,0,0,0,1.16,1.566A3.428,3.428,0,0,0-22.1,8.71a4.22,4.22,0,0,0,3.277-1.334q.232-.232.435-.058l1.711,1.508a.266.266,0,0,1,.029.406,6.388,6.388,0,0,1-2.407,1.74,8.352,8.352,0,0,1-3.335.638,6.5,6.5,0,0,1-3.727-1.03,5.257,5.257,0,0,1-2.1-2.857A11.155,11.155,0,0,1-28.717,4.3,11.379,11.379,0,0,1-28.253.85a5.19,5.19,0,0,1,2.1-2.842,6.356,6.356,0,0,1,3.611-1.015,6.328,6.328,0,0,1,3.655,1.03M-24.25.227a2.518,2.518,0,0,0-1.015,1.32,3.754,3.754,0,0,0-.174,1.189.154.154,0,0,0,.174.174h5.481a.154.154,0,0,0,.174-.174,3.754,3.754,0,0,0-.174-1.189A2.523,2.523,0,0,0-20.8.227,3.036,3.036,0,0,0-22.51-.252a3.085,3.085,0,0,0-1.74.479" transform="translate(28.717 3.007)" fill="#fff"/></g></g></g></svg>