<svg xmlns="http://www.w3.org/2000/svg" xmlns:xlink="http://www.w3.org/1999/xlink" width="30.92" height="30.92" viewBox="0 0 30.92 30.92"><defs><clipPath id="a"><path d="M0,0H30.92V-30.92H0Z" fill="none"/></clipPath></defs><g transform="translate(0 30.92)"><g clip-path="url(#a)"><g transform="translate(8.372 -4.848)"><path d="M13.35,4.848H.825a9.207,9.207,0,0,1-9.2-9.2V-16.874a9.208,9.208,0,0,1,9.2-9.2H13.35a9.208,9.208,0,0,1,9.2,9.2V-4.349A9.208,9.208,0,0,1,13.35,4.848ZM.825-24.572a7.706,7.706,0,0,0-7.7,7.7V-4.349a7.706,7.706,0,0,0,7.7,7.7H13.35a7.706,7.706,0,0,0,7.7-7.7V-16.874a7.707,7.707,0,0,0-7.7-7.7ZM14.925-.616,7.088-8.454-.75-.616V-2.427A8.444,8.444,0,0,1,1.323-7.97a8.469,8.469,0,0,1,2.893-2.155,8.468,8.468,0,0,1-2.893-2.155A8.442,8.442,0,0,1-.75-17.822v-1.81L7.088-11.8l7.837-7.837v1.811a8.443,8.443,0,0,1-2.072,5.543A8.468,8.468,0,0,1,9.96-10.125,8.469,8.469,0,0,1,12.853-7.97a8.444,8.444,0,0,1,2.072,5.543ZM5.548-9.036a6.961,6.961,0,0,0-3.094,2.05A6.937,6.937,0,0,0,1.091-4.579Zm3.08,0,4.456,4.456a6.937,6.937,0,0,0-1.363-2.406A6.959,6.959,0,0,0,8.628-9.036ZM1.091-15.67a6.934,6.934,0,0,0,1.363,2.406,6.96,6.96,0,0,0,3.094,2.05Zm11.992,0L8.628-11.214a6.96,6.96,0,0,0,3.093-2.05A6.935,6.935,0,0,0,13.084-15.67Z" fill="#fff"/></g></g></g></svg>