<svg xmlns="http://www.w3.org/2000/svg" xmlns:xlink="http://www.w3.org/1999/xlink" width="512" height="512" viewBox="0 0 512 512"><defs><linearGradient id="a" x1="1.041" y1="1.256" x2="-0.118" y2="1.294" gradientUnits="objectBoundingBox"><stop offset="0" stop-color="aqua"/><stop offset="0.51" stop-color="#fc0"/><stop offset="1" stop-color="#ff640f"/></linearGradient><clipPath id="b"><path d="M699.561,142.67h44.788a31.391,31.391,0,0,0,25-12.505,27.15,27.15,0,0,1,.885,18.405l2,.618-2-.616a26.946,26.946,0,0,1-25.884,19.093H699.561a12.512,12.512,0,0,1-12.494-12.5,12.317,12.317,0,0,1,1.106-5.114l-1.9-.862,1.9.856a12.518,12.518,0,0,1,11.387-7.373m12.406-63.5v4.176h32.382c11.962,0,22.363,8.652,25.884,20.07l2-.616-2,.618a27.139,27.139,0,0,1-.885,18.4,31.419,31.419,0,0,0-22.3-12.382v-.117H711.967V113.5h32.382a27.193,27.193,0,0,1,22.816,12.5,27.192,27.192,0,0,1-22.816,12.5H699.561a16.7,16.7,0,0,0-15.194,9.834,16.5,16.5,0,0,0-1.478,6.838,16.7,16.7,0,0,0,16.672,16.68h44.788a31.263,31.263,0,0,0,27.661-45.828l.016-.023-.016-.025a31.3,31.3,0,0,0,2.214-23.781c-3.8-12.314-14.522-21.829-27.174-22.9V79.17ZM574.658,154.83V107.382a16.853,16.853,0,0,0,12.711,5.781h12.707V154.83a12.709,12.709,0,1,1-25.417,0m29.6,0V113.163h11.759a46.021,46.021,0,0,0,32.835-13.746,41.964,41.964,0,0,1-32.835,68.122H598.477a16.859,16.859,0,0,0,5.777-12.709m-29.6-58.558a12.722,12.722,0,0,1,12.711-12.7h12.707v25.419H587.369a12.727,12.727,0,0,1-12.711-12.714m29.6-12.7h11.759a41.874,41.874,0,0,1,30.068,12.709,41.868,41.868,0,0,1-30.068,12.711H604.254Zm0-45.847a12.719,12.719,0,0,1,12.37-12.7,41.962,41.962,0,0,1,32.224,68.114,46.015,46.015,0,0,0-32.835-13.748H604.254Zm-29.6,0a12.722,12.722,0,0,1,12.711-12.7h18.484a16.847,16.847,0,0,0-5.777,12.7V79.387H587.369a16.853,16.853,0,0,0-12.711,5.781ZM616.6,20.841c-.2,0-.395,0-.592,0H587.369A16.9,16.9,0,0,0,570.48,37.72V154.83a16.9,16.9,0,0,0,16.889,16.885h28.644A46.14,46.14,0,0,0,651.68,96.276,46.139,46.139,0,0,0,616.96,20.847v-.01c-.119,0-.239,0-.356,0M711.967,25h42.482a12.512,12.512,0,0,1,12.494,12.5,12.359,12.359,0,0,1-1.108,5.118l1.855.836-1.855-.834A12.519,12.519,0,0,1,754.449,50H711.967A31.387,31.387,0,0,0,686.96,62.512q-.493-1.187-.877-2.435l-2,.614,1.993-.616a27.147,27.147,0,0,1,2.431-21.526l-1.679-.971,1.679.969A27.2,27.2,0,0,1,711.967,25m0-4.178A31.278,31.278,0,0,0,682.09,61.308a31.773,31.773,0,0,0,2.216,5.384,31.312,31.312,0,0,0-2.216,23.791c4.065,13.18,16.072,23.013,29.877,23.013v-4.176c-11.962,0-22.365-8.652-25.884-20.07l-1.966.6,1.964-.606a27.177,27.177,0,0,1,.868-18.362,31.112,31.112,0,0,0,25.019,12.46V79.17A26.938,26.938,0,0,1,689.137,66.7a27.19,27.19,0,0,1,22.83-12.523h42.482a16.7,16.7,0,0,0,15.2-9.838,16.526,16.526,0,0,0,1.476-6.836,16.7,16.7,0,0,0-16.672-16.678ZM354.922,155.733V129.68A27.691,27.691,0,0,0,378.3,142.553h.868v13.18a12.124,12.124,0,1,1-24.249,0m0-38.407V36.776a12.124,12.124,0,0,1,24.249,0v101.6H378.3a23.545,23.545,0,0,1-23.381-21.051m-4.178-80.549v78.087h-.127c0,.9.043,1.792.127,2.671v38.2a16.107,16.107,0,0,0,16.3,16.05c1.089,0,2.04.027,3.183,0l36.029-.057v-4.178H378.272a16.268,16.268,0,0,0,5.077-11.815v-13.18h40.025a12.5,12.5,0,1,1,0,25H406.261v4.178h17.113a16.675,16.675,0,1,0,0-33.35H383.349V36.776a16.3,16.3,0,0,0-32.6,0M515.131,155.109V97.6h11.442c7.469,0,13.547,5.6,13.547,12.5v45.015a12.514,12.514,0,0,1-7.371,11.388l.86,1.905-.86-1.905a12.38,12.38,0,0,1-5.122,1.108,12.509,12.509,0,0,1-12.5-12.5m-58.346,0V84.1A29.963,29.963,0,0,0,481.78,97.6v57.512a12.518,12.518,0,0,1-7.374,11.388l.856,1.905L474.4,166.5a12.479,12.479,0,0,1-17.62-11.388m29.173-103.4A27.176,27.176,0,0,1,498.452,28.9a27.18,27.18,0,0,1,12.5,22.812V93.423H485.976Zm16.666-25a27.339,27.339,0,0,1,18.411-.885A26.952,26.952,0,0,1,540.12,51.709V99.354a18.163,18.163,0,0,0-13.547-5.931H515.131V49.008h-.119a31.393,31.393,0,0,0-12.388-22.3m-27.975-4.88.614,2-.615-1.993a31.109,31.109,0,0,0-22.038,29.875h4.176a26.954,26.954,0,0,1,19.091-25.882,27.337,27.337,0,0,1,18.405.885,31.372,31.372,0,0,0-12.5,25v41.71c-13.813-.18-24.995-10.657-24.995-23.512v-18.2h-4.176v103.4a16.675,16.675,0,0,0,33.35,0V97.6h24.995v57.51a16.69,16.69,0,0,0,16.674,16.672,16.519,16.519,0,0,0,6.84-1.477,16.7,16.7,0,0,0,9.832-15.194V49.008h-.115a31.084,31.084,0,0,0-21.919-27.174l-.615,1.991.614-1.993a31.576,31.576,0,0,0-23.785,2.222l-.025-.016-.022.016a31.539,31.539,0,0,0-23.781-2.222" transform="translate(-350.617 -20.468)" stroke="#fff" stroke-width="1" fill="url(#a)"/></clipPath></defs><g transform="translate(-296 -1189)"><rect width="512" height="512" transform="translate(296 1189)" fill="#003057"/><g transform="translate(339.504 1456.312)"><g clip-path="url(#b)"><rect width="424.993" height="152.421" transform="translate(0 -1.046)" fill="url(#a)"/></g></g><path d="M29.4,10.305a34.278,34.278,0,0,1,7.872,2.936,1,1,0,0,1,.594,1.02V25.579a.752.752,0,0,1-.852.849H29.528a.752.752,0,0,1-.852-.849V20.389a.725.725,0,0,0-.512-.765,23.158,23.158,0,0,0-8.509-1.531q-4.683,0-7.065,2a6.787,6.787,0,0,0-2.383,5.49,6.644,6.644,0,0,0,2.34,5.319q2.34,2,8.127,2.766l3.063.425q8.425,1.192,12.85,5.446T41.014,51.2q0,8.087-5.531,12.893t-16,4.809A38.8,38.8,0,0,1,.593,64.3,1.113,1.113,0,0,1,0,63.277V51.7a.753.753,0,0,1,.852-.851h7.83a.754.754,0,0,1,.852.851v5.7a.6.6,0,0,0,.425.6A28.347,28.347,0,0,0,20,59.957q5.189,0,8.041-2.171a7.294,7.294,0,0,0,2.852-6.168,6.671,6.671,0,0,0-2.424-5.36q-2.426-2.042-8.128-2.809l-3.063-.425q-8.512-1.19-12.893-5.276T0,26.174q0-8.082,5.36-12.551t14.9-4.468a37.289,37.289,0,0,1,9.147,1.15" transform="translate(339.504 1253.776)" fill="#fff"/><path d="M58.528,21.432a22.8,22.8,0,0,1,6.3,2.383,1.156,1.156,0,0,1,.681,1.107v9.361a.752.752,0,0,1-.852.849H57.422a.752.752,0,0,1-.852-.849V30.54a.6.6,0,0,0-.425-.6,8.47,8.47,0,0,0-2.171-.6,17.919,17.919,0,0,0-3.022-.254q-6.64,0-8.426,5.36a25.352,25.352,0,0,0-.852,7.572,25.751,25.751,0,0,0,.852,7.661q1.787,5.278,8.426,5.276a12.559,12.559,0,0,0,5.192-.767.715.715,0,0,0,.425-.594V49.772a.753.753,0,0,1,.852-.852h7.232a.754.754,0,0,1,.852.852v9.445a1.151,1.151,0,0,1-.681,1.106A30.132,30.132,0,0,1,50.7,63.472a20.665,20.665,0,0,1-11.191-2.809,14.84,14.84,0,0,1-6.255-8.253,33.916,33.916,0,0,1-1.277-10.383A32.86,32.86,0,0,1,33.251,31.9a15.314,15.314,0,0,1,6.339-8.382A20.066,20.066,0,0,1,50.7,20.583a34.415,34.415,0,0,1,7.832.849" transform="translate(354.68 1259.2)" fill="#fff"/><path d="M73.482,27.491V58.806a.453.453,0,0,0,.512.512h3.657a.753.753,0,0,1,.852.849V66.8a.751.751,0,0,1-.852.849H59.781a.752.752,0,0,1-.852-.849V60.167a.752.752,0,0,1,.852-.849h3.657a.452.452,0,0,0,.512-.512V35.489a.452.452,0,0,0-.512-.512H59.781a.753.753,0,0,1-.852-.852V27.491a.752.752,0,0,1,.852-.849H72.63a.75.75,0,0,1,.852.849m0-16.851v7.4a.752.752,0,0,1-.852.849H64.8a.752.752,0,0,1-.852-.849v-7.4a.752.752,0,0,1,.852-.849h7.83a.752.752,0,0,1,.852.849" transform="translate(367.473 1254.077)" fill="#fff"/><path d="M104.03,23.6a15.516,15.516,0,0,1,6.127,8.3,24.113,24.113,0,0,1,1.063,4.936,69.695,69.695,0,0,1,.3,7.4c0,.569-.311.849-.936.849H85.31a.452.452,0,0,0-.512.512,9.084,9.084,0,0,0,.6,3.148,8.793,8.793,0,0,0,3.4,4.595,10.053,10.053,0,0,0,5.786,1.618,12.376,12.376,0,0,0,9.616-3.915c.454-.453.879-.512,1.277-.17L110.5,55.3a.777.777,0,0,1,.084,1.191,18.753,18.753,0,0,1-7.063,5.105,24.491,24.491,0,0,1-9.787,1.873A19.051,19.051,0,0,1,82.8,60.449a15.414,15.414,0,0,1-6.168-8.382,32.717,32.717,0,0,1-1.448-10.041A33.428,33.428,0,0,1,76.54,31.9a15.24,15.24,0,0,1,6.17-8.339,18.658,18.658,0,0,1,10.6-2.979A18.564,18.564,0,0,1,104.03,23.6M88.285,30.07a7.393,7.393,0,0,0-2.979,3.872,11,11,0,0,0-.512,3.489.452.452,0,0,0,.512.512h16.082a.452.452,0,0,0,.512-.512,11.021,11.021,0,0,0-.512-3.489A7.408,7.408,0,0,0,98.41,30.07a8.9,8.9,0,0,0-5.021-1.4,9.055,9.055,0,0,0-5.1,1.4" transform="translate(375.186 1259.199)" fill="#fff"/><path d="M138.846,24.837a15.686,15.686,0,0,1,3.872,10.977V53.685a.451.451,0,0,0,.51.51h3.49a.754.754,0,0,1,.852.851v6.636a.753.753,0,0,1-.852.851h-17.7a.752.752,0,0,1-.852-.851V55.046a.753.753,0,0,1,.852-.851h3.658a.451.451,0,0,0,.51-.51V38.027a10.073,10.073,0,0,0-1.955-6.51,7.868,7.868,0,0,0-11.362,0,9.915,9.915,0,0,0-2,6.51V53.685a.452.452,0,0,0,.512.51h3.659a.754.754,0,0,1,.852.851v6.636a.753.753,0,0,1-.852.851H104.17a.752.752,0,0,1-.852-.851V55.046a.753.753,0,0,1,.852-.851h3.659a.451.451,0,0,0,.51-.51V30.367a.451.451,0,0,0-.51-.51H104.17a.753.753,0,0,1-.852-.852V22.37a.752.752,0,0,1,.852-.851h12.85a.753.753,0,0,1,.851.851v2.979h.084a10.433,10.433,0,0,1,4.127-3.448,14.419,14.419,0,0,1,6.425-1.32,13.3,13.3,0,0,1,10.339,4.256" transform="translate(388.539 1259.199)" fill="#fff"/><path d="M162.926,21.432a22.8,22.8,0,0,1,6.3,2.383,1.156,1.156,0,0,1,.681,1.107v9.361a.752.752,0,0,1-.852.849H161.82a.752.752,0,0,1-.852-.849V30.54a.6.6,0,0,0-.425-.6,8.471,8.471,0,0,0-2.171-.6,17.918,17.918,0,0,0-3.021-.254q-6.64,0-8.426,5.36a25.35,25.35,0,0,0-.852,7.572,25.749,25.749,0,0,0,.852,7.661q1.787,5.278,8.426,5.276a12.559,12.559,0,0,0,5.192-.767.715.715,0,0,0,.425-.594V49.772a.753.753,0,0,1,.852-.852h7.232a.754.754,0,0,1,.852.852v9.445a1.151,1.151,0,0,1-.681,1.106,30.132,30.132,0,0,1-14.127,3.15A20.665,20.665,0,0,1,143.9,60.663a14.84,14.84,0,0,1-6.255-8.253,33.915,33.915,0,0,1-1.277-10.383A32.86,32.86,0,0,1,137.649,31.9a15.314,15.314,0,0,1,6.339-8.382,20.066,20.066,0,0,1,11.105-2.936,34.415,34.415,0,0,1,7.832.849" transform="translate(404.229 1259.2)" fill="#fff"/><path d="M192.184,23.6a15.516,15.516,0,0,1,6.127,8.3,24.112,24.112,0,0,1,1.063,4.936,69.677,69.677,0,0,1,.3,7.4c0,.569-.311.849-.936.849H173.461a.453.453,0,0,0-.512.512,9.084,9.084,0,0,0,.6,3.148,8.8,8.8,0,0,0,3.4,4.595,10.058,10.058,0,0,0,5.788,1.618,12.38,12.38,0,0,0,9.616-3.915c.453-.453.877-.512,1.277-.17l5.021,4.425a.779.779,0,0,1,.084,1.191A18.759,18.759,0,0,1,191.67,61.6a24.484,24.484,0,0,1-9.786,1.873,19.048,19.048,0,0,1-10.936-3.023,15.424,15.424,0,0,1-6.17-8.382,32.764,32.764,0,0,1-1.447-10.041A33.383,33.383,0,0,1,164.693,31.9a15.238,15.238,0,0,1,6.168-8.339,20.44,20.44,0,0,1,21.323.044M176.44,30.07a7.393,7.393,0,0,0-2.979,3.872,10.993,10.993,0,0,0-.512,3.489.452.452,0,0,0,.512.512h16.082a.452.452,0,0,0,.512-.512,11.021,11.021,0,0,0-.512-3.489,7.409,7.409,0,0,0-2.979-3.872,8.9,8.9,0,0,0-5.021-1.4,9.055,9.055,0,0,0-5.1,1.4" transform="translate(417.025 1259.199)" fill="#fff"/><path d="M135.119,58.414a34.239,34.239,0,0,1,7.87,2.936,1,1,0,0,1,.6,1.02V73.689a.752.752,0,0,1-.852.849h-7.488a.752.752,0,0,1-.852-.849V68.5a.727.727,0,0,0-.512-.767,23.188,23.188,0,0,0-8.509-1.531q-4.683,0-7.065,2a6.783,6.783,0,0,0-2.383,5.49,6.648,6.648,0,0,0,2.34,5.319q2.34,2,8.127,2.765l3.063.425q8.425,1.192,12.85,5.447T146.73,99.3q0,8.087-5.531,12.891T125.2,117a38.807,38.807,0,0,1-18.891-4.595,1.1,1.1,0,0,1-.594-1.019V99.816a.754.754,0,0,1,.852-.852H114.4a.755.755,0,0,1,.852.852v5.7a.6.6,0,0,0,.425.6,28.383,28.383,0,0,0,10.041,1.955q5.189,0,8.041-2.169a7.292,7.292,0,0,0,2.852-6.17,6.665,6.665,0,0,0-2.424-5.359q-2.422-2.042-8.128-2.809l-3.063-.425Q114.48,89.944,110.1,85.86t-4.384-11.571q0-8.085,5.36-12.552t14.892-4.467a37,37,0,0,1,9.15,1.144" transform="translate(389.679 1276.612)" fill="#fff"/><path d="M164.273,73.544h.084V70.482a.752.752,0,0,1,.852-.851h12.848a.754.754,0,0,1,.852.851v6.636a.754.754,0,0,1-.852.852H174.4a.452.452,0,0,0-.512.512v38.634a.452.452,0,0,0,.512.512h3.657a.754.754,0,0,1,.852.852v6.637a.754.754,0,0,1-.852.851H160.186a.752.752,0,0,1-.851-.851v-6.637a.752.752,0,0,1,.851-.852h3.659a.453.453,0,0,0,.512-.512V106.734h-.084q-3.406,4.851-10.893,4.852a15.406,15.406,0,0,1-8.935-2.511,13.913,13.913,0,0,1-5.275-7.361,30.436,30.436,0,0,1-1.107-4.978,51.1,51.1,0,0,1-.341-6.6,51.142,51.142,0,0,1,.341-6.6,30.5,30.5,0,0,1,1.107-4.978,13.936,13.936,0,0,1,5.275-7.361,15.413,15.413,0,0,1,8.935-2.511q7.49.009,10.893,4.854m-13.233,5.021a7.555,7.555,0,0,0-2.765,3.915,26.263,26.263,0,0,0-.852,7.659,26.263,26.263,0,0,0,.852,7.659,7.549,7.549,0,0,0,2.765,3.915,8.085,8.085,0,0,0,4.807,1.361,8.287,8.287,0,0,0,4.851-1.361,7.486,7.486,0,0,0,2.809-3.915,26.349,26.349,0,0,0,.852-7.659,26.376,26.376,0,0,0-.852-7.659,7.5,7.5,0,0,0-2.809-3.915,8.3,8.3,0,0,0-4.851-1.361,8.1,8.1,0,0,0-4.807,1.361" transform="translate(404.87 1282.033)" fill="#fff"/><path d="M208.068,70.178v31.315a.453.453,0,0,0,.512.512h3.657a.753.753,0,0,1,.852.849v6.637a.751.751,0,0,1-.852.849H199.389a.752.752,0,0,1-.852-.849v-2.979h-.084q-3.745,4.767-10.552,4.764a13.034,13.034,0,0,1-10.255-4.256,15.894,15.894,0,0,1-3.787-10.977V78.174a.453.453,0,0,0-.512-.512h-3.659a.753.753,0,0,1-.852-.851V70.178a.752.752,0,0,1,.852-.849h12.85a.753.753,0,0,1,.852.849V93.836a10.221,10.221,0,0,0,1.916,6.51,7.719,7.719,0,0,0,11.234,0,9.789,9.789,0,0,0,2-6.426V78.177a.453.453,0,0,0-.512-.512h-3.744a.752.752,0,0,1-.851-.852V70.178a.751.751,0,0,1,.851-.849h12.935a.752.752,0,0,1,.849.849" transform="translate(419.639 1282.336)" fill="#fff"/><path d="M232.633,72.014q3.871,3.318,3.872,10.976V101.8a.451.451,0,0,0,.51.512h3.659a.754.754,0,0,1,.852.849v6.637a.752.752,0,0,1-.852.849H228.5a.752.752,0,0,1-.852-.849v-2.979h-.084a10.233,10.233,0,0,1-4.425,3.49,17.259,17.259,0,0,1-6.978,1.277,14.812,14.812,0,0,1-9.83-3.234q-3.873-3.234-3.872-9.361,0-6.552,4.3-9.83t12.04-3.277h8.168a.451.451,0,0,0,.512-.512V83.752q0-3.745-1.828-5.446t-6.6-1.7a19.664,19.664,0,0,0-4.424.51.523.523,0,0,0-.425.6v3.66a.752.752,0,0,1-.852.849h-7.4a.752.752,0,0,1-.852-.849v-8.68a1.15,1.15,0,0,1,.681-1.107,31.357,31.357,0,0,1,13.7-2.893q9.279.009,13.152,3.324M213.7,94.393a4.69,4.69,0,0,0-2.126,4.257,4.508,4.508,0,0,0,1.786,3.871,8.646,8.646,0,0,0,5.192,1.321q8.936,0,8.933-6.979V93.545a.451.451,0,0,0-.51-.512h-6.637q-4.512,0-6.637,1.36" transform="translate(435.595 1282.033)" fill="#fff"/><path d="M261.273,69.351c.566.115.852.4.852.852v7.4a.888.888,0,0,1-.255.723.922.922,0,0,1-.765.127,33.4,33.4,0,0,0-5.021-.681q-4.594,0-6.894,2.554t-2.3,8v13.36a.453.453,0,0,0,.512.512h4a.752.752,0,0,1,.851.849v6.637a.751.751,0,0,1-.851.849H233.191a.752.752,0,0,1-.852-.849v-6.637a.752.752,0,0,1,.852-.849h3.657a.453.453,0,0,0,.512-.512V78.369a.452.452,0,0,0-.512-.512h-3.657a.753.753,0,0,1-.852-.852V70.371a.752.752,0,0,1,.852-.849H246.04a.753.753,0,0,1,.852.849v4.256h.084a11.884,11.884,0,0,1,4.042-4.086,11.611,11.611,0,0,1,6.255-1.618,18.045,18.045,0,0,1,4,.428" transform="translate(449.777 1282.143)" fill="#fff"/><path d="M284.416,71.714a15.521,15.521,0,0,1,6.127,8.3,24.133,24.133,0,0,1,1.063,4.936,69.731,69.731,0,0,1,.3,7.4c0,.569-.311.849-.936.849H265.7a.452.452,0,0,0-.512.512,9.1,9.1,0,0,0,.6,3.15,8.79,8.79,0,0,0,3.4,4.593,10.053,10.053,0,0,0,5.786,1.618,12.375,12.375,0,0,0,9.616-3.914q.681-.681,1.277-.171l5.023,4.427a.777.777,0,0,1,.083,1.19,18.735,18.735,0,0,1-7.063,5.105,24.466,24.466,0,0,1-9.787,1.873,19.062,19.062,0,0,1-10.936-3.021,15.423,15.423,0,0,1-6.168-8.383,32.712,32.712,0,0,1-1.448-10.041,33.418,33.418,0,0,1,1.361-10.126,15.223,15.223,0,0,1,6.17-8.339,20.439,20.439,0,0,1,21.32.043m-15.745,6.469a7.394,7.394,0,0,0-2.979,3.872,11,11,0,0,0-.512,3.489.452.452,0,0,0,.512.512h16.082a.452.452,0,0,0,.512-.512,11.019,11.019,0,0,0-.512-3.489,7.408,7.408,0,0,0-2.979-3.872,8.9,8.9,0,0,0-5.021-1.4,9.045,9.045,0,0,0-5.1,1.4" transform="translate(460.801 1282.033)" fill="#fff"/></g></svg>