<svg xmlns="http://www.w3.org/2000/svg" xmlns:xlink="http://www.w3.org/1999/xlink" width="130" height="130" viewBox="0 0 130 130">
  <defs>
    <filter id="Ellipse_326" x="0" y="0" width="130" height="130" filterUnits="userSpaceOnUse">
      <feOffset input="SourceAlpha"/>
      <feGaussianBlur stdDeviation="13" result="blur"/>
      <feFlood flood-opacity="0.161"/>
      <feComposite operator="in" in2="blur"/>
      <feComposite in="SourceGraphic"/>
    </filter>
    <linearGradient id="linear-gradient" y1="0.585" x2="1" y2="0.564" gradientUnits="objectBoundingBox">
      <stop offset="0" stop-color="#f7ea55"/>
      <stop offset="0.502" stop-color="#bc39a3"/>
      <stop offset="1" stop-color="#8f41eb"/>
    </linearGradient>
  </defs>
  <g id="grfx-icon-main-menu-close" transform="translate(-1215 -34)">
    <g transform="matrix(1, 0, 0, 1, 1215, 34)" filter="url(#Ellipse_326)">
      <circle id="Ellipse_326-2" data-name="Ellipse 326" cx="26" cy="26" r="26" transform="translate(39 39)" fill="#fff"/>
    </g>
    <g id="Group_3185" data-name="Group 3185" transform="translate(0.5 -2.5)">
      <path id="Union_44" data-name="Union 44" d="M-16263.063,1404.349l-5.658-5.657-5.657,5.657a1,1,0,0,1-1.413,0,1,1,0,0,1,0-1.413l5.657-5.657-5.657-5.657a1,1,0,0,1,0-1.413,1,1,0,0,1,1.413,0l5.657,5.657,5.658-5.657a1,1,0,0,1,1.413,0,1,1,0,0,1,0,1.413l-5.657,5.657,5.657,5.657a1,1,0,0,1,0,1.413,1,1,0,0,1-.708.294A.987.987,0,0,1-16263.063,1404.349Z" transform="translate(17548.223 -1295.767)" fill="url(#linear-gradient)"/>
    </g>
  </g>
</svg>
