<svg id="grfx-logo-science-square-main-menu" xmlns="http://www.w3.org/2000/svg" xmlns:xlink="http://www.w3.org/1999/xlink" width="265.504" height="55.311" viewBox="0 0 265.504 55.311">
  <defs>
    <linearGradient id="linear-gradient" x1="1.041" y1="1.256" x2="-0.118" y2="1.294" gradientUnits="objectBoundingBox">
      <stop offset="0" stop-color="aqua"/>
      <stop offset="0.51" stop-color="#fc0"/>
      <stop offset="1" stop-color="#ff640f"/>
    </linearGradient>
    <clipPath id="clip-path">
      <path id="Path_4122" data-name="Path 4122" d="M434.067,49.693h10.711a7.507,7.507,0,0,0,5.979-2.991,6.493,6.493,0,0,1,.212,4.4l.477.148-.477-.147a6.444,6.444,0,0,1-6.19,4.566H434.067a2.992,2.992,0,0,1-2.988-2.99,2.945,2.945,0,0,1,.265-1.223l-.455-.206.455.2a2.994,2.994,0,0,1,2.723-1.763m2.967-15.186v1h7.744a6.661,6.661,0,0,1,6.19,4.8l.477-.147-.477.148a6.49,6.49,0,0,1-.212,4.4,7.514,7.514,0,0,0-5.333-2.961v-.028h-8.39v1h7.744a6.5,6.5,0,0,1,5.456,2.988,6.5,6.5,0,0,1-5.456,2.989H434.067a3.993,3.993,0,0,0-3.634,2.352,3.946,3.946,0,0,0-.353,1.635,3.993,3.993,0,0,0,3.987,3.989h10.711a7.477,7.477,0,0,0,6.615-10.96l0-.006,0-.006a7.484,7.484,0,0,0,.53-5.687,7.681,7.681,0,0,0-6.5-5.478v-.027ZM404.2,52.6V41.254a4.03,4.03,0,0,0,3.04,1.382h3.039V52.6a3.039,3.039,0,0,1-6.079,0m7.078,0V42.636h2.812a11.006,11.006,0,0,0,7.853-3.287,10.036,10.036,0,0,1-7.853,16.291h-4.194a4.032,4.032,0,0,0,1.382-3.039m-7.078-14a3.042,3.042,0,0,1,3.04-3.038h3.039v6.079h-3.039A3.044,3.044,0,0,1,404.2,38.6m7.078-3.038h2.812a10.014,10.014,0,0,1,7.191,3.039,10.013,10.013,0,0,1-7.191,3.04h-2.812Zm0-10.964a3.042,3.042,0,0,1,2.958-3.037,10.035,10.035,0,0,1,7.706,16.29,11,11,0,0,0-7.853-3.288h-2.812Zm-7.078,0a3.042,3.042,0,0,1,3.04-3.038h4.42a4.029,4.029,0,0,0-1.382,3.038v9.965h-3.039a4.03,4.03,0,0,0-3.04,1.382Zm10.031-4.037h-6.992a4.043,4.043,0,0,0-4.039,4.038V52.6a4.043,4.043,0,0,0,4.039,4.038h6.85a11.034,11.034,0,0,0,8.53-18.041,11.034,11.034,0,0,0-8.3-18.039v0h-.085m22.806,1h10.16a2.992,2.992,0,0,1,2.988,2.989,2.956,2.956,0,0,1-.265,1.224l.444.2-.444-.2a2.994,2.994,0,0,1-2.723,1.764h-10.16a7.506,7.506,0,0,0-5.98,2.993q-.118-.284-.21-.582l-.477.147.477-.147a6.492,6.492,0,0,1,.581-5.148l-.4-.232.4.232a6.5,6.5,0,0,1,5.609-3.239m0-1a7.48,7.48,0,0,0-7.145,9.682,7.6,7.6,0,0,0,.53,1.288,7.488,7.488,0,0,0-.53,5.69,7.654,7.654,0,0,0,7.145,5.5v-1a6.66,6.66,0,0,1-6.19-4.8l-.47.144.47-.145a6.5,6.5,0,0,1,.207-4.391,7.44,7.44,0,0,0,5.983,2.98v-1a6.442,6.442,0,0,1-5.46-2.983,6.5,6.5,0,0,1,5.46-2.995h10.16a4,4,0,0,0,3.634-2.353,3.952,3.952,0,0,0,.353-1.635,3.993,3.993,0,0,0-3.987-3.988ZM351.647,52.817v-6.23a6.622,6.622,0,0,0,5.592,3.079h.207v3.152a2.9,2.9,0,1,1-5.8,0m0-9.185V24.368a2.9,2.9,0,0,1,5.8,0v24.3h-.207a5.631,5.631,0,0,1-5.592-5.034m-1-19.263V43.043h-.03c0,.215.01.429.03.639v9.135a3.852,3.852,0,0,0,3.9,3.838c.26,0,.488.007.761,0l8.616-.014v-1h-6.694a3.891,3.891,0,0,0,1.214-2.826V49.665h9.572a2.989,2.989,0,1,1,0,5.978h-4.093v1h4.093a3.988,3.988,0,1,0,0-7.976h-9.572v-24.3a3.9,3.9,0,0,0-7.8,0m39.313,28.3V38.914H392.7a3.125,3.125,0,0,1,3.24,2.988V52.668a2.993,2.993,0,0,1-1.763,2.723l.206.456-.206-.456a2.961,2.961,0,0,1-1.225.265,2.992,2.992,0,0,1-2.988-2.988m-13.954,0V35.684a7.166,7.166,0,0,0,5.978,3.229V52.668a2.994,2.994,0,0,1-1.763,2.723l.2.456-.205-.456a2.984,2.984,0,0,1-4.214-2.723m6.977-24.728a6.5,6.5,0,0,1,2.988-5.456,6.5,6.5,0,0,1,2.99,5.456v9.976h-5.973Zm3.986-5.978a6.538,6.538,0,0,1,4.4-.212,6.446,6.446,0,0,1,4.564,6.19V39.334a4.344,4.344,0,0,0-3.24-1.418h-2.736V27.293h-.029a7.508,7.508,0,0,0-2.963-5.332m-6.69-1.167.147.477-.147-.477a7.44,7.44,0,0,0-5.27,7.145h1a6.446,6.446,0,0,1,4.566-6.19,6.538,6.538,0,0,1,4.4.212,7.5,7.5,0,0,0-2.99,5.978v9.975a5.856,5.856,0,0,1-5.978-5.623V27.939h-1V52.668a3.988,3.988,0,0,0,7.976,0V38.914h5.978V52.668a3.991,3.991,0,0,0,3.988,3.987,3.951,3.951,0,0,0,1.636-.353,3.994,3.994,0,0,0,2.351-3.634V27.293h-.028a7.434,7.434,0,0,0-5.242-6.5l-.147.476.147-.477a7.551,7.551,0,0,0-5.688.531l-.006,0-.005,0a7.543,7.543,0,0,0-5.687-.531" transform="translate(-350.617 -20.468)" stroke="#fff" stroke-width="1" fill="url(#linear-gradient)"/>
    </clipPath>
    <clipPath id="clip-path-2">
      <rect id="Rectangle_1772" data-name="Rectangle 1772" width="265.504" height="55.311" fill="#003057"/>
    </clipPath>
  </defs>
  <g id="Group_3432" data-name="Group 3432" transform="translate(163.866 9.566)">
    <g id="Group_3431" data-name="Group 3431" clip-path="url(#clip-path)">
      <rect id="Rectangle_1771" data-name="Rectangle 1771" width="101.637" height="36.452" transform="translate(0 -0.25)" fill="url(#linear-gradient)"/>
    </g>
  </g>
  <g id="Group_3434" data-name="Group 3434">
    <g id="Group_3433" data-name="Group 3433" clip-path="url(#clip-path-2)">
      <path id="Path_4123" data-name="Path 4123" d="M9.319,9.52a10.864,10.864,0,0,1,2.495.931.317.317,0,0,1,.188.323v3.587a.238.238,0,0,1-.27.269H9.359a.238.238,0,0,1-.27-.269V12.715a.23.23,0,0,0-.162-.243,7.34,7.34,0,0,0-2.7-.485,3.414,3.414,0,0,0-2.239.633,2.151,2.151,0,0,0-.755,1.74,2.106,2.106,0,0,0,.742,1.686,5.071,5.071,0,0,0,2.576.877l.971.135A7.165,7.165,0,0,1,11.6,18.784,4.887,4.887,0,0,1,13,22.479a5.141,5.141,0,0,1-1.753,4.086,7.507,7.507,0,0,1-5.07,1.524A12.3,12.3,0,0,1,.188,26.633.353.353,0,0,1,0,26.308V22.64a.239.239,0,0,1,.27-.27H2.752a.239.239,0,0,1,.27.27v1.807a.19.19,0,0,0,.135.189,8.984,8.984,0,0,0,3.182.62,4.129,4.129,0,0,0,2.549-.688,2.312,2.312,0,0,0,.9-1.955,2.114,2.114,0,0,0-.768-1.7,5.124,5.124,0,0,0-2.576-.89l-.971-.135A7.352,7.352,0,0,1,1.39,18.217,4.764,4.764,0,0,1,0,14.549a4.894,4.894,0,0,1,1.7-3.978A7.162,7.162,0,0,1,6.42,9.155a11.818,11.818,0,0,1,2.9.365" transform="translate(0 -4.876)" fill="#003057"/>
      <path id="Path_4124" data-name="Path 4124" d="M40.39,20.852a7.225,7.225,0,0,1,2,.755.366.366,0,0,1,.216.351v2.967a.238.238,0,0,1-.27.269H40.039a.238.238,0,0,1-.27-.269V23.739a.191.191,0,0,0-.135-.189,2.685,2.685,0,0,0-.688-.189,5.679,5.679,0,0,0-.958-.08,2.493,2.493,0,0,0-2.671,1.7,8.035,8.035,0,0,0-.27,2.4,8.161,8.161,0,0,0,.27,2.428,2.494,2.494,0,0,0,2.671,1.672,3.981,3.981,0,0,0,1.646-.243.227.227,0,0,0,.135-.188V29.834a.239.239,0,0,1,.27-.27h2.292a.239.239,0,0,1,.27.27v2.993a.365.365,0,0,1-.216.351,9.55,9.55,0,0,1-4.477,1,6.549,6.549,0,0,1-3.547-.89,4.7,4.7,0,0,1-1.983-2.616,10.749,10.749,0,0,1-.4-3.291,10.415,10.415,0,0,1,.4-3.209,4.854,4.854,0,0,1,2.009-2.656,6.36,6.36,0,0,1,3.52-.931,10.907,10.907,0,0,1,2.482.269" transform="translate(-17.03 -10.963)" fill="#003057"/>
      <path id="Path_4125" data-name="Path 4125" d="M63.541,15.4v9.925a.143.143,0,0,0,.162.162h1.159a.239.239,0,0,1,.27.269v2.1a.238.238,0,0,1-.27.269H59.2a.238.238,0,0,1-.27-.269v-2.1a.238.238,0,0,1,.27-.269h1.159a.143.143,0,0,0,.162-.162v-7.39a.143.143,0,0,0-.162-.162H59.2a.239.239,0,0,1-.27-.27V15.4a.238.238,0,0,1,.27-.269h4.072a.238.238,0,0,1,.27.269m0-5.341v2.346a.238.238,0,0,1-.27.269H60.79a.238.238,0,0,1-.27-.269V10.06a.238.238,0,0,1,.27-.269h2.482a.238.238,0,0,1,.27.269" transform="translate(-31.388 -5.215)" fill="#003057"/>
      <path id="Path_4126" data-name="Path 4126" d="M84.323,21.539a4.918,4.918,0,0,1,1.942,2.63,7.642,7.642,0,0,1,.337,1.564,22.087,22.087,0,0,1,.094,2.346c0,.18-.1.269-.3.269H78.39a.143.143,0,0,0-.162.162,2.879,2.879,0,0,0,.189,1A2.787,2.787,0,0,0,79.5,30.965a3.186,3.186,0,0,0,1.834.513,3.922,3.922,0,0,0,3.048-1.241c.144-.143.279-.162.4-.054l1.591,1.4a.246.246,0,0,1,.027.378,5.944,5.944,0,0,1-2.239,1.618,7.762,7.762,0,0,1-3.1.594,6.038,6.038,0,0,1-3.466-.958,4.885,4.885,0,0,1-1.955-2.656,10.369,10.369,0,0,1-.459-3.182,10.6,10.6,0,0,1,.431-3.21,4.83,4.83,0,0,1,1.955-2.643,6.477,6.477,0,0,1,6.757.014m-4.99,2.049a2.343,2.343,0,0,0-.944,1.227,3.484,3.484,0,0,0-.162,1.106.143.143,0,0,0,.162.162h5.1a.143.143,0,0,0,.162-.162,3.493,3.493,0,0,0-.162-1.106,2.348,2.348,0,0,0-.944-1.227,2.822,2.822,0,0,0-1.591-.445,2.87,2.87,0,0,0-1.618.445" transform="translate(-40.043 -10.962)" fill="#003057"/>
      <path id="Path_4127" data-name="Path 4127" d="M114.578,21.93a4.972,4.972,0,0,1,1.227,3.479v5.664a.143.143,0,0,0,.162.162h1.106a.239.239,0,0,1,.27.27v2.1a.239.239,0,0,1-.27.27h-5.61a.238.238,0,0,1-.27-.27V31.5a.239.239,0,0,1,.27-.27h1.16a.143.143,0,0,0,.162-.162V26.11a3.193,3.193,0,0,0-.62-2.063,2.494,2.494,0,0,0-3.6,0,3.142,3.142,0,0,0-.634,2.063v4.962a.143.143,0,0,0,.162.162h1.16a.239.239,0,0,1,.27.27v2.1a.239.239,0,0,1-.27.27h-5.664a.238.238,0,0,1-.27-.27V31.5a.239.239,0,0,1,.27-.27h1.16a.143.143,0,0,0,.162-.162v-7.39a.143.143,0,0,0-.162-.162h-1.16a.239.239,0,0,1-.27-.27v-2.1a.238.238,0,0,1,.27-.27h4.073a.239.239,0,0,1,.27.27v.944h.027A3.307,3.307,0,0,1,109.265,21a4.57,4.57,0,0,1,2.036-.418,4.217,4.217,0,0,1,3.277,1.349" transform="translate(-55.031 -10.962)" fill="#003057"/>
      <path id="Path_4128" data-name="Path 4128" d="M144.788,20.852a7.225,7.225,0,0,1,2,.755.366.366,0,0,1,.216.351v2.967a.238.238,0,0,1-.27.269h-2.292a.238.238,0,0,1-.27-.269V23.739a.191.191,0,0,0-.135-.189,2.685,2.685,0,0,0-.688-.189,5.679,5.679,0,0,0-.958-.08,2.493,2.493,0,0,0-2.671,1.7,8.035,8.035,0,0,0-.27,2.4,8.161,8.161,0,0,0,.27,2.428,2.494,2.494,0,0,0,2.671,1.672,3.981,3.981,0,0,0,1.646-.243.227.227,0,0,0,.135-.188V29.834a.239.239,0,0,1,.27-.27h2.292a.239.239,0,0,1,.27.27v2.993a.365.365,0,0,1-.216.351,9.55,9.55,0,0,1-4.477,1,6.549,6.549,0,0,1-3.547-.89,4.7,4.7,0,0,1-1.983-2.616,10.749,10.749,0,0,1-.4-3.291,10.415,10.415,0,0,1,.4-3.209,4.854,4.854,0,0,1,2.009-2.656,6.36,6.36,0,0,1,3.52-.931,10.907,10.907,0,0,1,2.482.269" transform="translate(-72.637 -10.963)" fill="#003057"/>
      <path id="Path_4129" data-name="Path 4129" d="M172.476,21.539a4.918,4.918,0,0,1,1.942,2.63,7.642,7.642,0,0,1,.337,1.564,22.087,22.087,0,0,1,.094,2.346c0,.18-.1.269-.3.269h-8.011a.143.143,0,0,0-.162.162,2.879,2.879,0,0,0,.189,1,2.789,2.789,0,0,0,1.079,1.456,3.188,3.188,0,0,0,1.834.513,3.924,3.924,0,0,0,3.048-1.241c.143-.143.278-.162.4-.054l1.591,1.4a.247.247,0,0,1,.027.378,5.945,5.945,0,0,1-2.239,1.618,7.76,7.76,0,0,1-3.1.594,6.037,6.037,0,0,1-3.466-.958,4.888,4.888,0,0,1-1.955-2.656,10.384,10.384,0,0,1-.458-3.182,10.58,10.58,0,0,1,.431-3.21,4.83,4.83,0,0,1,1.955-2.643,6.478,6.478,0,0,1,6.758.014m-4.99,2.049a2.343,2.343,0,0,0-.944,1.227,3.484,3.484,0,0,0-.162,1.106.143.143,0,0,0,.162.162h5.1a.143.143,0,0,0,.162-.162,3.493,3.493,0,0,0-.162-1.106,2.348,2.348,0,0,0-.944-1.227,2.822,2.822,0,0,0-1.591-.445,2.87,2.87,0,0,0-1.618.445" transform="translate(-86.996 -10.962)" fill="#003057"/>
      <path id="Path_4130" data-name="Path 4130" d="M115.034,57.633a10.852,10.852,0,0,1,2.494.931.317.317,0,0,1,.189.323v3.587a.238.238,0,0,1-.27.269h-2.373a.238.238,0,0,1-.27-.269V60.828a.23.23,0,0,0-.162-.243,7.349,7.349,0,0,0-2.7-.485,3.411,3.411,0,0,0-2.239.634,2.15,2.15,0,0,0-.755,1.74,2.107,2.107,0,0,0,.742,1.686,5.067,5.067,0,0,0,2.576.876l.971.135a7.163,7.163,0,0,1,4.073,1.726,4.887,4.887,0,0,1,1.4,3.695,5.14,5.14,0,0,1-1.753,4.086,7.507,7.507,0,0,1-5.07,1.524,12.3,12.3,0,0,1-5.987-1.456.348.348,0,0,1-.188-.323V70.754a.239.239,0,0,1,.27-.27h2.481a.239.239,0,0,1,.27.27v1.807a.191.191,0,0,0,.135.189,9,9,0,0,0,3.182.62,4.133,4.133,0,0,0,2.549-.687,2.311,2.311,0,0,0,.9-1.955,2.113,2.113,0,0,0-.768-1.7,5.121,5.121,0,0,0-2.576-.89L111.191,68a7.353,7.353,0,0,1-4.086-1.672,4.764,4.764,0,0,1-1.389-3.667,4.891,4.891,0,0,1,1.7-3.978,7.16,7.16,0,0,1,4.72-1.416,11.726,11.726,0,0,1,2.9.363" transform="translate(-56.308 -30.504)" fill="#003057"/>
      <path id="Path_4131" data-name="Path 4131" d="M146.137,70.229h.027v-.971a.238.238,0,0,1,.27-.27h4.072a.239.239,0,0,1,.27.27v2.1a.239.239,0,0,1-.27.27h-1.159a.143.143,0,0,0-.162.162V84.038a.143.143,0,0,0,.162.162h1.159a.239.239,0,0,1,.27.27v2.1a.239.239,0,0,1-.27.27h-5.664a.238.238,0,0,1-.27-.27v-2.1a.238.238,0,0,1,.27-.27H146a.143.143,0,0,0,.162-.162v-3.29h-.027a3.922,3.922,0,0,1-3.452,1.538,4.883,4.883,0,0,1-2.832-.8,4.409,4.409,0,0,1-1.672-2.333,9.646,9.646,0,0,1-.351-1.578,20.3,20.3,0,0,1,0-4.182,9.667,9.667,0,0,1,.351-1.578,4.417,4.417,0,0,1,1.672-2.333,4.885,4.885,0,0,1,2.832-.8,3.927,3.927,0,0,1,3.452,1.539m-4.194,1.591a2.394,2.394,0,0,0-.876,1.241,11.042,11.042,0,0,0,0,4.855,2.392,2.392,0,0,0,.876,1.241,2.563,2.563,0,0,0,1.524.431A2.627,2.627,0,0,0,145,79.157a2.373,2.373,0,0,0,.89-1.241,11.042,11.042,0,0,0,0-4.855A2.378,2.378,0,0,0,145,71.82a2.63,2.63,0,0,0-1.538-.431,2.566,2.566,0,0,0-1.524.431" transform="translate(-73.356 -36.587)" fill="#003057"/>
      <path id="Path_4132" data-name="Path 4132" d="M181.27,69.6v9.925a.143.143,0,0,0,.162.162h1.159a.239.239,0,0,1,.27.269v2.1a.238.238,0,0,1-.27.269h-4.072a.238.238,0,0,1-.27-.269v-.944h-.027a4.008,4.008,0,0,1-3.344,1.51,4.131,4.131,0,0,1-3.25-1.349,5.037,5.037,0,0,1-1.2-3.479V72.132a.143.143,0,0,0-.162-.162h-1.16a.239.239,0,0,1-.27-.27V69.6a.238.238,0,0,1,.27-.269h4.073a.239.239,0,0,1,.27.269v7.5a3.239,3.239,0,0,0,.607,2.063,2.446,2.446,0,0,0,3.56,0,3.1,3.1,0,0,0,.634-2.037v-4.99a.143.143,0,0,0-.162-.162H176.9a.238.238,0,0,1-.27-.27V69.6a.238.238,0,0,1,.27-.269H181a.238.238,0,0,1,.269.269" transform="translate(-89.928 -36.927)" fill="#003057"/>
      <path id="Path_4133" data-name="Path 4133" d="M212.024,69.743a4.359,4.359,0,0,1,1.227,3.479v5.96a.143.143,0,0,0,.162.162h1.16a.239.239,0,0,1,.27.269v2.1a.238.238,0,0,1-.27.269h-3.857a.238.238,0,0,1-.27-.269v-.944h-.027a3.243,3.243,0,0,1-1.4,1.106,5.47,5.47,0,0,1-2.212.4,4.694,4.694,0,0,1-3.115-1.025,4.223,4.223,0,0,1,.135-6.082,6.177,6.177,0,0,1,3.816-1.038h2.589a.143.143,0,0,0,.162-.162v-.513a2.26,2.26,0,0,0-.58-1.726,3.093,3.093,0,0,0-2.091-.539,6.232,6.232,0,0,0-1.4.162.166.166,0,0,0-.135.189v1.16a.238.238,0,0,1-.27.269h-2.346a.238.238,0,0,1-.27-.269V69.958a.364.364,0,0,1,.216-.351,9.938,9.938,0,0,1,4.342-.917,6.449,6.449,0,0,1,4.168,1.053m-6,7.093a1.487,1.487,0,0,0-.674,1.349,1.429,1.429,0,0,0,.566,1.227,2.74,2.74,0,0,0,1.646.419q2.832,0,2.831-2.212V76.567a.143.143,0,0,0-.162-.162h-2.1a4,4,0,0,0-2.1.431" transform="translate(-107.838 -36.587)" fill="#003057"/>
      <path id="Path_4134" data-name="Path 4134" d="M241.509,69.059c.179.036.27.126.27.27v2.346a.281.281,0,0,1-.081.229.292.292,0,0,1-.243.04,10.587,10.587,0,0,0-1.591-.216,2.79,2.79,0,0,0-2.185.809,3.711,3.711,0,0,0-.728,2.535v4.234a.143.143,0,0,0,.162.162h1.268a.238.238,0,0,1,.27.269v2.1a.238.238,0,0,1-.27.269h-5.772a.238.238,0,0,1-.27-.269v-2.1a.238.238,0,0,1,.27-.269h1.159a.143.143,0,0,0,.162-.162v-7.39a.143.143,0,0,0-.162-.162h-1.159a.239.239,0,0,1-.27-.27v-2.1a.238.238,0,0,1,.27-.269h4.072a.239.239,0,0,1,.27.269v1.349h.027a3.766,3.766,0,0,1,1.281-1.3,3.68,3.68,0,0,1,1.983-.513,5.719,5.719,0,0,1,1.268.136" transform="translate(-123.752 -36.711)" fill="#003057"/>
      <path id="Path_4135" data-name="Path 4135" d="M264.709,69.65a4.919,4.919,0,0,1,1.942,2.63,7.649,7.649,0,0,1,.337,1.564,22.1,22.1,0,0,1,.094,2.346c0,.18-.1.269-.3.269h-8.01a.143.143,0,0,0-.162.162,2.884,2.884,0,0,0,.189,1,2.786,2.786,0,0,0,1.079,1.456,3.186,3.186,0,0,0,1.834.513,3.922,3.922,0,0,0,3.048-1.24q.216-.216.4-.054l1.592,1.4a.246.246,0,0,1,.026.377,5.938,5.938,0,0,1-2.239,1.618,7.754,7.754,0,0,1-3.1.594,6.041,6.041,0,0,1-3.466-.958,4.888,4.888,0,0,1-1.955-2.657,10.368,10.368,0,0,1-.459-3.182A10.591,10.591,0,0,1,256,72.279a4.825,4.825,0,0,1,1.955-2.643,6.478,6.478,0,0,1,6.757.014m-4.99,2.05a2.343,2.343,0,0,0-.944,1.227,3.485,3.485,0,0,0-.162,1.106.143.143,0,0,0,.162.162h5.1a.143.143,0,0,0,.162-.162,3.492,3.492,0,0,0-.162-1.106,2.348,2.348,0,0,0-.944-1.227,2.822,2.822,0,0,0-1.591-.445,2.867,2.867,0,0,0-1.618.445" transform="translate(-136.123 -36.588)" fill="#003057"/>
      <path id="Path_4140" data-name="Path 4140" d="M0,0V55.311" transform="translate(147.464 0)" fill="none" stroke="#003057" stroke-width="2.472"/>
    </g>
  </g>
</svg>
